<?xml version="1.0" standalone="no"?>
<!DOCTYPE svg PUBLIC "-//W3C//DTD SVG 1.1//EN" "http://www.w3.org/Graphics/SVG/1.1/DTD/svg11.dtd" >
<svg xmlns="http://www.w3.org/2000/svg">
<metadata>Generated by IcoMoon</metadata>
<defs>
<font id="icomoon" horiz-adv-x="1024">
<font-face units-per-em="1024" ascent="960" descent="-64" />
<missing-glyph horiz-adv-x="1024" />
<glyph unicode="&#x20;" horiz-adv-x="512" d="" />
<glyph unicode="&#xe900;" glyph-name="air-conditioner" d="M807.383 521.846h-590.768l-35.446-157.537h661.66l-35.446 157.537zM935.383 827.076h-846.767c-48.864 0-88.616-39.752-88.616-88.614v-285.537c0-48.863 39.752-88.617 88.616-88.617h32l43.552 193.559c3.032 13.481 15.002 23.058 28.818 23.058h638.031c13.816 0 25.784-9.577 28.818-23.058l43.551-193.559h32c48.863 0 88.617 39.752 88.617 88.617v285.537c-0.003 48.862-39.754 88.614-88.62 88.614zM669.537 620.308h-39.383c-16.315 0-29.537 13.225-29.537 29.537s13.225 29.537 29.537 29.537h39.383c16.315 0 29.54-13.225 29.54-29.537s-13.225-29.537-29.54-29.537zM807.383 620.308h-39.383c-16.315 0-29.537 13.225-29.537 29.537s13.225 29.537 29.537 29.537h39.383c16.315 0 29.54-13.225 29.54-29.537s-13.225-29.537-29.54-29.537zM531.694 229.75c0 8.225 1.533 10.785 5.637 17.618 5.599 9.329 14.054 23.424 14.054 48.015 0 16.315-13.225 29.54-29.537 29.54s-29.537-13.228-29.537-29.54c0-8.225-1.533-10.783-5.637-17.618-5.596-9.326-14.054-23.424-14.054-48.015s8.458-38.689 14.054-48.020c4.101-6.838 5.637-9.395 5.637-17.623s-1.533-10.79-5.637-17.626c-5.596-9.329-14.054-23.427-14.054-48.018 0-16.315 13.225-29.54 29.537-29.54s29.537 13.228 29.537 29.54c0 8.228 1.533 10.79 5.64 17.623 5.596 9.329 14.052 23.427 14.052 48.020s-8.456 38.689-14.052 48.020c-4.104 6.835-5.64 9.393-5.64 17.623zM374.152 229.75c0 8.225 1.533 10.785 5.635 17.618 5.599 9.329 14.057 23.424 14.057 48.015 0 16.315-13.225 29.54-29.537 29.54s-29.54-13.228-29.54-29.54c0-8.225-1.533-10.783-5.635-17.618-5.599-9.326-14.057-23.424-14.057-48.015s8.458-38.689 14.054-48.020c4.101-6.838 5.637-9.395 5.637-17.623s-1.533-10.79-5.637-17.626c-5.596-9.329-14.054-23.427-14.054-48.018 0-16.315 13.228-29.54 29.537-29.54 16.312 0 29.54 13.228 29.54 29.54 0 8.228 1.533 10.79 5.637 17.623 5.596 9.329 14.054 23.427 14.054 48.020s-8.458 38.689-14.054 48.020c-4.101 6.835-5.637 9.393-5.637 17.623zM689.231 229.75c0 8.225 1.536 10.785 5.637 17.618 5.599 9.329 14.057 23.424 14.057 48.015 0 16.315-13.228 29.54-29.54 29.54s-29.537-13.228-29.537-29.54c0-8.225-1.533-10.783-5.637-17.618-5.596-9.326-14.054-23.424-14.054-48.015s8.458-38.689 14.054-48.020c4.101-6.838 5.637-9.395 5.637-17.623s-1.533-10.79-5.637-17.626c-5.596-9.329-14.054-23.427-14.054-48.018 0-16.315 13.225-29.54 29.537-29.54s29.537 13.228 29.537 29.54c0 8.228 1.536 10.79 5.64 17.623 5.596 9.329 14.054 23.427 14.054 48.020s-8.458 38.689-14.054 48.020c-4.104 6.835-5.64 9.393-5.64 17.623z" />
<glyph unicode="&#xe901;" glyph-name="air-conditioning" d="M367.588 650.173c-105.027-1.050-186.947-84.544-185.897-189.571 0.525-102.4 85.596-183.795 190.098-183.27 100.298 0.525 183.268 86.121 182.743 187.471-0.525 102.4-85.071 185.897-186.944 185.37zM302.996 619.192c18.903 7.352 39.383 13.652 59.338 14.702 28.882 1.577 42.012-16.279 35.185-44.634-4.201-17.331-12.078-34.135-18.381-51.464-1.050-3.151-5.775-6.303-8.927-6.303-22.054-0.525-39.91-8.402-55.662-26.255-11.553 14.177-22.057 26.255-31.508 39.91-21.005 28.882-12.603 60.915 19.955 74.043zM331.354 350.851c-16.279-30.456-47.788-36.759-75.095-15.227-17.328 13.652-33.082 28.355-42.009 48.837-9.977 22.579-2.1 42.010 22.055 47.785 19.954 4.726 40.959 5.778 61.966 7.877 2.624 0.525 7.35-1.574 8.402-3.676 9.452-18.903 24.681-30.456 46.211-37.284-7.877-17.329-13.652-33.608-21.53-48.312zM367.060 418.068c-25.731 0-46.211 21.53-46.211 47.26 0.525 26.258 21.005 46.213 46.738 46.213 25.731 0 46.211-21.007 46.211-46.738 0-26.255-21.005-47.26-46.738-46.735zM525.125 418.593c-4.201-23.107-11.028-45.161-27.308-63.542-14.702-16.804-32.033-17.853-47.785-3.149-16.279 15.227-29.409 33.083-37.284 54.088-1.052 2.624-1.577 7.352 0 8.927 16.279 16.279 22.579 35.709 21.005 61.44 15.754 0 29.932 0.525 43.584 0 33.61-0.525 54.090-25.206 47.788-57.764zM910.569 701.637c-0.525 36.759-27.305 63.015-64.589 63.015-41.485 0.525-83.497 0-125.507 0-178.020 0-356.037 0-534.58 0-48.837 0-73.518-24.681-73.518-73.519v-180.119c0-93.998-0.525-187.994 0.525-282.519 0-12.603 4.201-26.78 10.503-37.809 11.553-19.955 30.983-28.882 54.088-29.407h57.239v-19.955c0-6.3 5.251-11.028 11.028-11.028h48.312c6.3 0 11.028 5.253 11.028 11.028v18.906h411.174v-18.906c0-6.3 5.251-11.028 11.028-11.028h48.31c6.303 0 11.028 5.253 11.028 11.028v20.48h58.813c30.459 1.050 55.665 20.48 61.967 49.362 2.099 9.452 2.099 19.43 2.099 28.882 0 108.178 0 215.828 0 324.004 1.577 46.213 2.102 91.899 1.050 137.585zM369.687 246.351c-122.354 0-218.978 96.622-218.978 218.452 0 119.204 98.199 216.353 218.978 215.828 118.679-0.525 215.828-97.674 215.828-216.878s-97.149-217.403-215.828-217.403zM841.252 325.12h-172.767v283.569h172.767v-283.569z" />
<glyph unicode="&#xe902;" glyph-name="basin" d="M353.528 683.568h-67.306c-27.879 0-50.479-22.6-50.479-50.479v-50.479h-151.436c-24.701 0.062-45.798-17.806-49.804-42.179s10.263-48.054 33.684-55.902c7.482-152.211 132.946-271.852 285.34-272.098h50.479v-50.479c0.088-21.315 13.556-40.278 33.652-47.382v-104.054c0-37.171 30.134-67.304 67.306-67.304s67.306 30.133 67.306 67.304v104.054c20.096 7.105 33.564 26.067 33.652 47.382v50.479h50.479c152.394 0.247 277.857 119.887 285.34 272.098 23.422 7.847 37.69 31.528 33.685 55.902-4.007 24.373-25.104 42.241-49.804 42.179h-151.437v50.479c0 27.879-22.6 50.479-50.479 50.479h-67.306c-27.879 0-50.479-22.6-50.479-50.479v-50.479h-50.479v235.568c-0.039 38.768-16.773 75.641-45.924 101.197-29.152 25.556-67.897 37.32-106.337 32.286-67.965-10.057-117.978-68.89-116.96-137.589v-12.72c0-18.586 15.067-33.654 33.654-33.654h33.652c18.586 0 33.652 15.067 33.652 33.654v16.826c-0.009 10.132 4.547 19.729 12.403 26.127 7.857 6.398 18.178 8.915 28.098 6.853 16.029-3.926 27.175-18.466 26.804-34.965v-233.583h-50.479v50.479c0 27.879-22.6 50.479-50.479 50.479zM269.397 633.089c0 9.292 7.533 16.827 16.825 16.827h67.306c9.292 0 16.827-7.534 16.827-16.827v-50.479h-100.958v50.479zM538.617 10.515c0-18.585-15.066-33.652-33.652-33.652s-33.652 15.067-33.652 33.652v100.958h67.304v-100.958zM572.27 161.952c0-9.292-7.534-16.825-16.827-16.825h-100.958c-9.292 0-16.827 7.533-16.827 16.825v50.479h134.611v-50.479zM656.401 246.085h-302.873c-132.795 0.17-242.813 103.079-251.839 235.568h806.551c-9.026-132.488-119.044-235.397-251.839-235.568zM942.448 532.131c0-9.292-7.533-16.827-16.825-16.827h-841.315c-9.293 0-16.826 7.534-16.826 16.827s7.533 16.827 16.826 16.827h841.315c9.292 0 16.825-7.534 16.825-16.827zM639.575 633.089c0 9.292 7.534 16.827 16.827 16.827h67.306c9.292 0 16.825-7.534 16.825-16.827v-50.479h-100.958v50.479zM434.11 884.188c-19.786 3.981-40.314-1.127-55.928-13.917-15.612-12.79-24.661-31.91-24.654-52.093v-16.826h-33.652v12.72c-1.041 51.779 36.41 96.331 87.597 104.205 28.845 3.801 57.928-5.008 79.817-24.174s34.46-46.832 34.502-75.926v-235.568h-33.654v233.583c0.529 32.656-22.098 61.132-54.028 67.995z" />
<glyph unicode="&#xe903;" glyph-name="business" d="M640.414 361.924c56.329 18.475 105.348 48.435 108.348 89.506-33.523-31.834-78.477-50.624-125.747-50.624-16.055 0-31.957 2.138-47.479 6.379-7.846-3.883-16.469-5.918-25.344-5.918-31.735 0-57.549 25.813-57.549 57.536 0 31.706 25.813 57.519 57.549 57.519 23.561 0 43.857-14.161 52.693-34.62 6.613-1.323 13.385-1.997 20.203-1.997 24.883 0 48.755 8.96 67.255 24.7-8.201 11.426-12.881 25.344-12.881 39.852v83.968c0 17.101 6.246 33.085 17.122 45.363-19.157 89.723-85.116 155.771-182.588 155.771-97.476 0-163.421-66.079-182.591-155.812 10.865-12.288 17.101-28.242 17.101-45.322v-83.999c0-37.641-30.556-68.259-68.168-68.442-0.154-0.461-0.348-0.994-0.492-1.446-16.527-53.001 39.721-90.633 105.769-112.384-152.033-112.905-253.532 20.378-253.532-259.797 0-77.589 207.145-114.957 381.144-114.957 174.007 0 382.677 37.367 382.677 114.965 0 280.145-101.478 146.906-253.491 259.759zM275.952 502.242h2.068c23.194 0 41.994 18.812 41.994 41.985v83.999c0 16.497-9.544 30.73-23.347 37.612 5.97 113.582 100.239 204.186 215.315 204.186 115.046 0 209.34-90.604 215.287-204.175-13.815-6.881-23.326-21.115-23.326-37.612v-83.988c0-16.773 9.86-31.211 24.085-37.948-24.977-34.202-64.474-53.086-104.943-53.086-14.067 0-28.271 2.295-42.001 7.014-0.751 16.457-14.255 29.615-30.908 29.615-17.182 0-31.057-13.888-31.057-31.040s13.875-31.057 31.057-31.057c8.226 0 15.637 3.255 21.197 8.469 16.858-5.99 34.325-8.917 51.622-8.917 53.167 0 104.887 27.238 133.909 75.93 18.931 4.062 33.114 20.877 33.114 41.010v83.988c0 16.742-9.822 31.14-23.97 37.898-6.114 134.84-117.73 242.678-254.067 242.678-136.365 0-247.95-107.837-254.104-242.678-14.121-6.769-23.941-21.156-23.941-37.898v-83.999c-0.010-23.174 18.79-41.985 42.015-41.985z" />
<glyph unicode="&#xe904;" glyph-name="calendar" d="M29.955 177.988h784.035c7.031 0 13.828 2.462 19.217 6.946 7.531 6.306 179.315 154.082 189.79 473.076h-842.039c-10.435-289.562-168.638-425.665-170.282-427.022-9.638-8.145-13.185-21.449-8.848-33.284 4.306-11.806 15.529-19.716 28.127-19.716zM993.997 838.018h-150.007v30.001c0 16.8-13.201 30.001-30.003 30.001s-29.999-13.201-29.999-30.001v-30.001h-152.009v30.001c0 16.8-13.201 30.001-30.003 30.001-16.798 0-29.999-13.201-29.999-30.001v-30.001h-150.007v30.001c0 16.8-13.201 30.001-30.001 30.001s-30.001-13.201-30.001-30.001v-30.001h-150.007c-16.801 0-30.001-13.201-30.001-30.001v-90.004h842.037v90.004c0 16.801-13.201 30.001-29.999 30.001zM871.735 138.931c-16.294-13.564-36.74-20.949-57.749-20.949h-632.028v-90.001c0-16.585 13.419-30.003 30.001-30.003h782.037c16.58 0 29.999 13.419 29.999 30.003v336.307c-57.843-141.909-138.556-213.884-152.26-225.357z" />
<glyph unicode="&#xe905;" glyph-name="calendar-2" d="M154.738-64h600.746c10.051 0 19.722 3.983 26.737 11.187l211.625 211.628c7.204 7.204 11.187 16.689 11.187 26.737v562.823c0 74.904-60.872 135.775-135.775 135.775h-53.852v37.925c0.003 20.859-17.068 37.925-37.926 37.925s-37.926-17.066-37.926-37.925v-37.925h-455.109v37.925c0 20.859-17.068 37.925-37.927 37.925s-37.925-17.066-37.925-37.925v-37.925h-53.854c-74.904 0-135.775-60.872-135.775-135.775v-676.6c0-74.903 60.872-135.775 135.775-135.775zM758.518 30.625v121.935c0 6.067 4.931 10.998 10.998 10.998h121.933l-132.931-132.933zM94.816 748.374c0 32.995 26.927 59.922 59.922 59.922h53.854v-37.925c0-20.86 17.066-37.925 37.925-37.925s37.925 17.066 37.925 37.925v37.925h455.112v-37.925c0-20.86 17.068-37.925 37.926-37.925s37.926 17.066 37.926 37.925v37.925h53.852c32.996 0 59.922-26.927 59.922-59.922v-508.966h-159.667c-47.977 0-86.853-38.876-86.853-86.853v-140.705h-527.922c-32.995 0-59.922 26.926-59.922 59.922v676.602zM293.932 523.855c26.181 0 47.406 21.225 47.406 47.406 0 26.184-21.225 47.406-47.406 47.406s-47.407-21.222-47.407-47.406c0-26.181 21.225-47.406 47.407-47.406zM502.518 523.855c26.184 0 47.409 21.225 47.409 47.406 0 26.184-21.225 47.406-47.409 47.406-26.181 0-47.406-21.222-47.406-47.406 0-26.181 21.225-47.406 47.406-47.406zM711.107 523.855c26.181 0 47.406 21.225 47.406 47.406 0 26.184-21.225 47.406-47.406 47.406s-47.406-21.222-47.406-47.406c0-26.181 21.225-47.406 47.406-47.406zM293.932 334.223c26.181 0 47.406 21.225 47.406 47.409 0 26.181-21.225 47.406-47.406 47.406s-47.407-21.225-47.407-47.406c0-26.184 21.225-47.409 47.407-47.409zM502.518 334.223c26.184 0 47.409 21.225 47.409 47.409 0 26.181-21.225 47.406-47.409 47.406-26.181 0-47.406-21.225-47.406-47.406 0-26.184 21.225-47.409 47.406-47.409zM711.107 334.223c26.181 0 47.406 21.225 47.406 47.409 0 26.181-21.225 47.406-47.406 47.406s-47.406-21.225-47.406-47.406c0-26.184 21.225-47.409 47.406-47.409zM293.932 144.594c26.181 0 47.406 21.225 47.406 47.406s-21.225 47.406-47.406 47.406c-26.181 0-47.407-21.225-47.407-47.406s21.225-47.406 47.407-47.406zM502.518 144.594c26.184 0 47.409 21.225 47.409 47.406s-21.225 47.406-47.409 47.406c-26.181 0-47.406-21.225-47.406-47.406s21.225-47.406 47.406-47.406z" />
<glyph unicode="&#xe906;" glyph-name="call-service" d="M958.598 211.898c-13.184 38.822-39.149 151.237-167.846 178.434l17.67 4.676c41.709 11.050 70.822 48.888 70.822 92.046v17.673c6.387 3.304 10.938 9.164 12.749 16.3 34.752 0.718 62.771 28.987 62.771 63.916 0 34.924-28.019 63.195-62.771 63.911-1.747 6.796-5.958 12.342-11.91 15.726 2.118 25.278-3.149 59.082-17.734 91.295-7.046 14.606-15.744 30.22-27.994 44.543-103.603 132.082-335.448 91.624-374.254-86.278-0.065-0.264-0.065-0.481-0.125-0.73 10.972-9.46 20.913-19.11 28.52-28.863 0.346-0.406 0.594-0.811 0.936-1.217 56.044 191.649 328.591 182.048 362.447-21.073-5.773-4.677-9.664-11.517-9.664-19.512v-115.638c0-7.669 3.584-14.341 8.941-19.014 0.813-0.67 1.715-1.156 2.592-1.73v-19.311c0-69.231-75.187-73.578-142.202-91.329-16.608 17.942-45.946 6.126-45.946-17.906 0-30.312 43.328-37.265 51.744-6.936 33.011 8.745 24 6.358 44.608 11.812-5.926-4.002-12.032-7.589-18.298-10.847-5.984-51.288-74.714-63.508-97.875-17.111-21.849 3.083-42.548 10.785-61.654 22.068-11.782-10.475-26.121-18.126-41.923-21.82-0.374-0.486-0.747-0.951-1.153-1.421 0-31.869-9.227-59.129-28.522-82.992 43.329-26.24 78.518-64.858 100.43-112.346h307.177c27.872-0.006 47.379 27.398 38.464 53.67zM648.525 405.948c9.286 14.353 25.338 23.923 43.635 23.923 12.032 0 22.976-4.255 31.763-11.114 53.050 29.208 90.362 98.699 90.362 179.85 0 107.491-65.427 194.611-146.157 194.611-73.56 0-134.28-72.518-144.44-166.806 5.704-13.606 10.441-27.679 13.651-42.266 3.492-16.521 4.271-26.916 4.957-42.518 42.391-9.973 74.276-48.326 74.276-93.306 0-10.208-1.839-19.981-4.861-29.252 11.565-6.455 23.941-10.819 36.814-13.123zM473.161 238.406c-22.036-11.654-30.172-11.782-114.424-34.112-25.093-24.845-67.014-18.33-83.069 13.837-32.166 4.57-62.027 18.688-87.618 40.211-77.893-10.739-144.442-64.269-170.25-140.294-12.061-35.488-26.027-57.869-9.349-81.088 20.073-28.083 18.668-17.235 545.626-17.235 28.241 0 48.125 27.878 39.087 54.528-15.551 45.805-32.787 120.563-120.003 164.154zM278.413 269.338c12.001 18.502 34.411 28.6 58.35 21.54l45.259 12.001c68.107 63.866 58.193 144.005 58.193 203.46-34.193 194.796-249.203 200.032-284.332 0 0-319.178 0.032 230.314 0.032-88.867 13.684-77.69 62.216-137.332 122.498-148.135zM74.282 384.397c2.774-11.037 12.31-19.391 24.22-19.391 14.088 0 25.494 11.411 25.494 25.467v115.637c0 8.013-3.93 14.855-9.692 19.528 6.39 39.806 27.741 79.204 54.299 105.325 38.991 41.516 104.264 65.485 178.632 47.407 28.614-9.322 56.792-22.333 80.264-47.407 26.119-25.624 47.347-64.072 54.268-105.34-15.056-12.205-9.665-22.739-9.665-135.153 0-8.789 4.739-16.179 11.535-20.744v-19.327c0-66.95-66.051-71.13-142.166-91.309-16.613 17.933-45.978 6.125-45.978-17.914 0-30.31 43.356-37.274 51.774-6.931 78.799 20.87 161.866 28.755 161.866 116.154v17.689c6.391 3.304 10.941 9.165 12.716 16.316 34.82 0.703 62.808 28.988 62.808 63.9 0 34.908-27.99 63.181-62.808 63.898-1.714 6.794-5.921 12.362-11.875 15.758 1.309 15.32-0.594 34.113-3.866 49.542-2.806 12.719-7.169 26.916-13.839 41.738-7.075 14.602-15.774 30.218-28.024 44.527-11.593 14.835-26.557 28.365-43.451 40.271-147.216 102.003-350.504-18.657-334.701-176.111-5.923-3.396-10.098-8.946-11.812-15.71-34.848-0.682-62.872-28.972-62.872-63.912s28.024-63.243 62.872-63.91z" />
<glyph unicode="&#xe907;" glyph-name="cart" d="M767.368 166.912h-361.168c-52.084 0-98.264 34.171-112.359 83.125l-122.077 413.656c-4.337 14.979-18.753 25.258-35.218 25.258h-95.653c-22.207 0-40.157 17.99-40.157 40.157s17.95 40.157 40.157 40.157h95.653c52.084 0 98.224-34.174 112.319-83.125l22.849-77.503h614.197c25.058 0 48.833-11.927 63.572-31.925 14.613-19.837 18.83-44.654 11.565-68.106l-82.848-262.949c-16.221-47.465-60.675-78.746-110.833-78.746zM442.461-33.894c-44.293 0-80.314 36.021-80.314 80.318 0 44.291 36.021 80.312 80.314 80.312s80.314-36.021 80.314-80.312c0-44.297-36.021-80.318-80.314-80.318zM723.558-33.894c-44.291 0-80.312 36.021-80.312 80.318 0 44.291 36.021 80.312 80.312 80.312 44.297 0 80.318-36.021 80.318-80.312 0-44.297-36.021-80.318-80.318-80.318z" />
<glyph unicode="&#xe908;" glyph-name="check" d="M934.359 769.649c-29.573 29.61-77.592 29.592-107.199 0l-482.467-482.486-214.436 214.434c-29.61 29.61-77.607 29.61-107.217 0s-29.61-77.607 0-107.217l268.033-268.033c14.796-14.793 34.197-22.214 53.6-22.214s38.822 7.4 53.618 22.214l536.069 536.087c29.607 29.59 29.607 77.607 0 107.215z" />
<glyph unicode="&#xe909;" glyph-name="check-box" d="M761.747 122.547h-622.117v622.12h485.564l139.632 139.63h-764.826v-901.379h901.376v577.172l-139.629-139.633v-297.91zM292.61 557.009l-98.735-98.732 237.021-237.023 593.11 593.107-98.739 98.732-494.371-494.374-138.287 138.289z" />
<glyph unicode="&#xe90a;" glyph-name="checked" d="M994.708 820.008c-15.063 15.090-39.506 15.116-54.569 0.064l-462.986-461.765-167.043 181.427c-14.436 15.667-38.84 16.684-54.533 2.25-15.682-14.433-16.686-38.848-2.252-54.531l194.252-210.962c7.114-7.731 17.070-12.221 27.569-12.439 0.282-0.013 0.553-0.013 0.824-0.013 10.202 0 20.014 4.052 27.246 11.256l491.418 490.129c15.101 15.050 15.127 39.492 0.074 54.582zM985.405 486.595c-21.315 0-38.592-17.277-38.592-38.595 0-239.767-195.046-434.813-434.813-434.813-239.752 0-434.814 195.046-434.814 434.813 0 239.752 195.062 434.814 434.814 434.814 21.317 0 38.595 17.276 38.595 38.592 0 21.318-17.277 38.594-38.595 38.594-282.32 0-512-229.68-512-512 0-282.309 229.68-512 512-512 282.309 0 512 229.691 512 512 0 21.317-17.275 38.595-38.595 38.595z" />
<glyph unicode="&#xe90b;" glyph-name="clock" d="M512 960c-282.328 0-512-229.672-512-512s229.672-512 512-512c282.327 0 512 229.673 512 512s-229.673 512-512 512zM755.502 183.173c-8.32-8.32-19.246-12.508-30.167-12.508s-21.852 4.188-30.162 12.508l-213.337 213.325c-8.024 7.977-12.5 18.821-12.5 30.167v277.335c0 23.594 19.109 42.664 42.664 42.664 23.557 0 42.665-19.070 42.665-42.664v-259.671l200.837-200.827c16.676-16.691 16.676-43.648 0-60.329z" />
<glyph unicode="&#xe90c;" glyph-name="comments" d="M473.576 896.981c-260.6 0-472.615-190.811-472.615-425.354 0-81.983 25.931-161.398 75.114-230.069-9.311-102.983-34.265-179.432-70.498-215.65-4.789-4.789-5.986-12.115-2.962-18.164 2.678-5.404 8.192-8.728 14.1-8.728 0.725 0 1.449 0.047 2.19 0.158 6.38 0.898 154.592 22.229 261.797 84.11 60.873-24.56 125.716-37.006 192.874-37.006 260.6 0 472.616 190.807 472.616 425.35s-212.016 425.354-472.616 425.354zM253.022 408.611c-34.753 0-63.015 28.262-63.015 63.015s28.262 63.015 63.015 63.015c34.753 0 63.015-28.262 63.015-63.015s-28.262-63.015-63.015-63.015zM473.576 408.611c-34.753 0-63.015 28.262-63.015 63.015s28.262 63.015 63.015 63.015c34.753 0 63.015-28.262 63.015-63.015s-28.262-63.015-63.015-63.015zM694.129 408.611c-34.753 0-63.015 28.262-63.015 63.015s28.262 63.015 63.015 63.015c34.753 0 63.015-28.262 63.015-63.015s-28.262-63.015-63.015-63.015z" />
<glyph unicode="&#xe90d;" glyph-name="conversation" d="M920.781 611.6v-408.4c0.019-20.307-8.006-39.789-22.33-54.182-14.317-14.394-33.76-22.528-54.067-22.618h-65.6l-15.194-60.403c-3.034-12.454-9.171-23.942-17.85-33.389-8.672-9.44-19.597-16.531-31.75-20.608-7.987-2.72-16.371-4.070-24.806-4-17.318 0.019-34.112 5.946-47.603 16.8l-127.996 102.4-180.4-0.8c-12.371 0.051-24.545 3.098-35.482 8.877-10.937 5.786-20.311 14.131-27.32 24.32 6.629-0.928 13.308-1.459 20-1.6 27.305 0.205 53.765 9.491 75.205 26.4l129.2 103.603h185.993c31.802 0.094 62.266 12.767 84.749 35.251s35.162 52.952 35.251 84.749v280h43.603c20.243-0.066 39.642-8.136 53.952-22.45s22.381-33.708 22.445-53.95zM680.781 888h-559.999c-21.21-0.024-41.544-8.461-56.542-23.458s-23.434-35.332-23.458-56.542v-400c0.024-21.21 8.461-41.544 23.458-56.541s35.332-23.434 56.542-23.459h74.746l17.305-69.261c3.237-13.011 9.704-24.998 18.802-34.854 9.098-9.85 20.533-17.248 33.249-21.51 8.278-2.778 16.951-4.205 25.684-4.218 18.125 0.006 35.707 6.195 49.844 17.536l140.371 112.307h199.999c21.21 0.024 41.542 8.461 56.544 23.459 14.995 14.997 23.43 35.332 23.456 56.541v400c-0.026 21.21-8.461 41.544-23.456 56.542-15.002 14.998-35.334 23.434-56.544 23.458zM240.781 558c-9.889 0-19.556 2.932-27.779 8.426s-14.631 13.303-18.415 22.44c-3.784 9.136-4.775 19.19-2.845 28.888s6.691 18.609 13.684 25.601c6.993 6.993 15.902 11.754 25.601 13.684s19.752 0.939 28.889-2.845c9.136-3.784 16.945-10.193 22.439-18.415s8.427-17.889 8.427-27.779c0-6.566-1.293-13.068-3.805-19.135s-6.196-11.578-10.838-16.221c-4.643-4.643-10.156-8.326-16.222-10.838s-12.568-3.805-19.134-3.805zM400.781 558c-9.889 0-19.556 2.932-27.779 8.426s-14.631 13.303-18.415 22.44c-3.784 9.136-4.775 19.19-2.845 28.888s6.691 18.609 13.684 25.601c6.993 6.993 15.901 11.754 25.601 13.684s19.752 0.939 28.889-2.845c9.136-3.784 16.945-10.193 22.439-18.415s8.427-17.889 8.427-27.779c0-6.566-1.293-13.068-3.805-19.135s-6.196-11.578-10.839-16.221c-4.643-4.643-10.155-8.326-16.221-10.838s-12.568-3.805-19.134-3.805zM560.781 558c-9.889 0-19.556 2.932-27.779 8.426s-14.631 13.303-18.415 22.44c-3.784 9.136-4.775 19.19-2.845 28.888s6.691 18.609 13.684 25.601c6.993 6.993 15.901 11.754 25.601 13.684s19.752 0.939 28.889-2.845c9.136-3.784 16.945-10.193 22.439-18.415s8.427-17.889 8.427-27.779c0-6.566-1.293-13.068-3.805-19.135s-6.196-11.578-10.839-16.221c-4.643-4.643-10.155-8.326-16.221-10.838s-12.568-3.805-19.134-3.805z" />
<glyph unicode="&#xe90e;" glyph-name="double-right-arrow" d="M62.945 857.586c-12.108 0.266-23.997-3.244-34.016-10.047s-17.669-16.564-21.887-27.916c-4.218-11.352-4.794-23.735-1.648-35.43s9.857-22.114 19.201-29.818l356.529-305.433-356.529-305.323c-6.464-4.751-11.877-10.786-15.901-17.722-4.024-6.943-6.571-14.636-7.483-22.61-0.912-7.967-0.168-16.043 2.184-23.709s6.263-14.773 11.487-20.862c5.224-6.083 11.648-11.025 18.871-14.513s15.088-5.448 23.104-5.762c8.016-0.307 16.009 1.038 23.479 3.959s14.257 7.359 19.934 13.025l408.193 349.25c6.41 5.47 11.558 12.26 15.087 19.912s5.358 15.981 5.358 24.409c0 8.427-1.828 16.756-5.358 24.408s-8.677 14.449-15.087 19.919l-408.193 349.586c-10.312 9.159-23.538 14.353-37.325 14.677zM540.811 857.586c-12.108 0.266-23.997-3.244-34.016-10.047s-17.669-16.564-21.887-27.916c-4.218-11.352-4.794-23.735-1.649-35.43s9.858-22.114 19.201-29.818l356.532-305.433-356.532-305.323c-6.463-4.751-11.877-10.786-15.901-17.722-4.024-6.943-6.571-14.636-7.483-22.61-0.912-7.967-0.169-16.043 2.184-23.709s6.263-14.773 11.487-20.862c5.224-6.083 11.648-11.025 18.872-14.513s15.088-5.448 23.104-5.762c8.016-0.307 16.009 1.038 23.479 3.959s14.257 7.359 19.934 13.025l408.194 349.25c6.41 5.47 11.558 12.26 15.087 19.912s5.359 15.981 5.359 24.409c0 8.427-1.83 16.756-5.359 24.408s-8.677 14.449-15.087 19.919l-408.194 349.586c-10.312 9.159-23.538 14.353-37.325 14.677z" />
<glyph unicode="&#xe90f;" glyph-name="double-up-arrow" d="M61.292 477.935c-7.085-5.684-12.224-13.432-14.7-22.171-2.476-8.737-2.166-18.035 0.883-26.59s8.688-15.949 16.133-21.151c7.445-5.202 16.324-7.951 25.407-7.875l352.083-3.599-57.643-347.3c-1.423-5.847-1.626-11.919-0.592-17.848s3.281-11.576 6.599-16.594c3.318-5.023 7.636-9.298 12.685-12.57s10.72-5.468 16.656-6.451c5.936-0.978 12.007-0.717 17.84 0.758 5.832 1.48 11.296 4.147 16.051 7.834s8.699 8.31 11.581 13.594c2.883 5.279 4.644 11.095 5.174 17.091l66.15 397.44c1.046 6.236 0.73 12.616-0.932 18.715-1.661 6.098-4.626 11.764-8.689 16.606s-9.128 8.745-14.845 11.441c-5.717 2.695-11.951 4.118-18.271 4.171l-403.052 4.062c-10.34 0.291-20.443-3.101-28.521-9.562zM335.842 708.31c-7.085-5.684-12.223-13.432-14.7-22.171s-2.166-18.035 0.884-26.59c3.049-8.556 8.688-15.948 16.133-21.15s16.325-7.953 25.407-7.875l352.082-3.602-57.641-347.298c-1.423-5.847-1.628-11.919-0.594-17.848s3.282-11.576 6.6-16.594c3.318-5.023 7.639-9.298 12.687-12.57s10.716-5.468 16.655-6.446c5.934-0.983 12.006-0.722 17.838 0.758 5.832 1.475 11.295 4.142 16.051 7.828s8.699 8.31 11.581 13.594c2.883 5.279 4.644 11.1 5.176 17.091l66.15 397.442c1.044 6.233 0.727 12.616-0.932 18.714-1.664 6.098-4.628 11.764-8.689 16.606-4.065 4.841-9.129 8.745-14.848 11.441-5.714 2.695-11.95 4.118-18.268 4.171l-403.054 4.063c-10.34 0.291-20.442-3.101-28.52-9.562z" />
<glyph unicode="&#xe910;" glyph-name="down-arrow" d="M512 256c-8.182 0-16.374 3.128-22.622 9.375l-320 319.999c-12.504 12.504-12.504 32.752 0 45.248s32.752 12.504 45.248 0l297.374-297.377 297.38 297.377c12.503 12.504 32.753 12.504 45.245 0 12.498-12.504 12.503-32.752 0-45.248l-320-319.999c-6.246-6.246-14.438-9.375-22.625-9.375z" />
<glyph unicode="&#xe911;" glyph-name="download" d="M765.123 493.248c-5.181 11.456-16.573 18.752-29.117 18.752h-128v416c0 17.664-14.336 32-32 32h-128.001c-17.664 0-32-14.336-32-32v-416h-128c-12.544 0-23.936-7.36-29.12-18.752-5.248-11.456-3.2-24.832 5.056-34.304l224-256.003c6.080-6.973 14.848-10.941 24.065-10.941s17.981 4.029 24.064 10.941l224 256.003c8.32 9.408 10.24 22.848 5.053 34.304zM864 256v-192h-704v192h-128v-256c0-35.389 28.672-64 64-64h832c35.389 0 64 28.611 64 64v256h-128z" />
<glyph unicode="&#xe912;" glyph-name="email" d="M592.149 332.621c-24.392-16.986-52.724-25.965-81.937-25.965-29.21 0-57.542 8.979-81.934 25.965l-401.751 279.746c-2.229 1.552-4.4 3.17-6.528 4.834v-458.392c0-52.557 40.835-94.266 90.255-94.266h799.915c50.317 0 90.253 42.65 90.253 94.266v458.394c-2.131-1.668-4.307-3.29-6.541-4.844l-401.732-279.738zM58.394 662.285l401.75-279.748c15.208-10.59 32.637-15.884 50.067-15.884 17.432 0 34.863 5.296 50.071 15.884l401.747 279.748c24.045 16.73 38.394 44.73 38.394 74.95 0 51.962-40.474 94.234-90.221 94.234h-799.978c-49.749-0.002-90.224-42.274-90.224-94.284 0-30.17 14.354-58.17 38.394-74.9z" />
<glyph unicode="&#xe913;" glyph-name="gas-bottle" d="M548.986 880.915h-99.9c-18.392 0-33.302-14.909-33.302-33.3v-33.3c0-18.392 14.91-33.3 33.302-33.3h99.9c18.392 0 33.3 14.908 33.3 33.3v33.3c0 18.392-14.908 33.3-33.3 33.3zM449.086 814.314v33.3h99.9v-33.3h-99.9zM598.94 947.512h-199.81c-27.583 0-49.946-22.363-49.946-49.954v-153.034c-86.753-16.121-149.71-91.737-149.855-179.971v-366.31c0.068-61.89 31.38-119.558 83.255-153.315v-29.841c0-36.784 29.816-66.6 66.6-66.6h299.702c36.784 0 66.61 29.816 66.61 66.6v29.841c51.867 33.757 83.186 91.426 83.246 153.315v366.31c-0.137 88.234-63.103 163.85-149.856 179.971v153.034c0 27.591-22.363 49.954-49.946 49.954zM382.484 897.558c0 9.2 7.455 16.654 16.646 16.654h199.81c9.194 0 16.646-7.454 16.646-16.654v-149.848h-233.102v149.848zM682.186 27.596v-12.508c0-18.392-14.908-33.3-33.3-33.3h-299.702c-18.392 0-33.3 14.908-33.3 33.3v12.508c2.393-0.937 4.878-1.668 7.325-2.47 2.445-0.792 4.428-1.576 6.661-2.263 3.332-0.959 6.539-1.661 9.84-2.53 2.463-0.594 4.878-1.251 7.355-1.661 3.552-0.702 7.148-1.151 10.725-1.671 2.263-0.312 4.496-0.732 6.791-0.959 5.929-0.572 11.888-0.899 17.865-0.899h233.14c5.984 0 11.943 0.327 17.868 0.899 2.3 0.227 4.533 0.647 6.798 0.959 3.574 0.49 7.17 0.939 10.715 1.671 2.485 0.495 4.903 1.149 7.363 1.661 3.332 0.784 6.663 1.571 9.84 2.53 2.265 0.687 4.483 1.501 6.663 2.263 2.178 0.772 4.96 1.534 7.353 2.47zM765.442 564.554v-366.31c-0.32-60.236-36.379-114.536-91.775-138.2-1.281-0.534-2.63-0.932-3.911-1.426-4.268-1.668-8.574-3.149-12.972-4.398-1.828-0.519-3.681-0.969-5.55-1.434-4.161-1.014-8.369-1.851-12.638-2.515-1.661-0.252-3.329-0.564-5.105-0.784-5.947-0.717-11.921-1.084-17.905-1.099h-233.102c-5.982 0.040-11.958 0.427-17.903 1.166-1.663 0.222-3.407 0.534-5.108 0.787-4.261 0.662-8.477 1.501-12.638 2.515-1.866 0.465-3.711 0.914-5.547 1.431-4.391 1.244-8.706 2.745-12.965 4.391-1.289 0.505-2.637 0.899-3.919 1.434-55.373 23.652-91.425 77.919-91.776 138.133v366.31c0.099 82.722 67.135 149.75 149.854 149.856h233.102c82.722-0.107 149.756-67.135 149.856-149.856zM551.571 440.025c-29.971 24.071-55.863 44.956-55.863 69.932 1.304 8.774 6.556 16.479 14.254 20.892 6.943 4.818 9.696 13.757 6.654 21.646-3.050 7.987-11.134 12.872-19.626 11.861-59.939-7.166-87.934-78.164-87.934-123.882 1.311-22.133 8.756-43.468 21.502-61.607 5.822-7.957 9.848-17.081 11.798-26.746 0-14.983-4.84-14.983-9.985-14.983-7.43 0-11.174 1.553-12.226 3.017-1.828 5.929-1.371 12.333 1.281 17.95 2.605 7.6-0.29 15.999-7.021 20.38-6.813 4.086-15.472 3.384-21.531-1.751-26.434-24.354-42.141-58.188-43.69-94.093 0-73.691 56.015-117.7 149.856-117.7s149.846 44.010 149.846 117.7c0 79.16-53.962 122.53-97.315 157.384zM499.040 198.241c-43.53 0-116.556 10.977-116.556 84.4 0.177 13.634 3.599 27.026 9.993 39.062 0.2-0.297 0.382-0.579 0.594-0.847 9.406-11.951 24.216-18.33 39.359-16.966 20.932 0 43.293 12.653 43.293 48.285-1.461 15.785-7.148 30.882-16.461 43.705-9.513 13.11-15.32 28.535-16.839 44.656 0.475 23.010 7.455 45.418 20.13 64.627 2.5-38.3 34.421-64.010 68.156-91.099 41.722-33.552 84.915-68.271 84.915-131.424-0.037-73.423-73.064-84.4-116.584-84.4z" />
<glyph unicode="&#xe914;" glyph-name="happy" d="M512 960c-282.318 0-512-229.682-512-512s229.682-512 512-512c282.317 0 512 229.683 512 512s-229.683 512-512 512zM512-3.999c-249.234 0-452 202.765-452 451.999s202.766 452 452 452c249.234 0 451.999-202.766 451.999-452s-202.765-451.999-451.999-451.999zM389.783 543.997c5.366-15.675 22.42-24.028 38.098-18.665 15.675 5.368 24.033 22.423 18.668 38.1-18.138 52.974-67.945 88.568-123.937 88.568-56.038 0-105.853-35.628-123.967-88.655-5.356-15.677 3.012-32.73 18.692-38.085 3.212-1.098 6.484-1.62 9.7-1.62 12.476 0 24.128 7.846 28.388 20.308 9.815 28.741 36.818 48.049 67.187 48.049 30.346 0.003 57.341-19.29 67.172-48zM701.573 652.001c-56.036 0-105.853-35.628-123.965-88.655-5.358-15.677 3.011-32.73 18.691-38.085 3.213-1.098 6.484-1.62 9.7-1.62 12.477 0 24.128 7.846 28.388 20.308 9.818 28.741 36.818 48.049 67.19 48.049 30.346 0 57.341-19.292 67.172-48.003 5.366-15.675 22.418-24.028 38.098-18.665 15.675 5.368 24.033 22.423 18.668 38.1-18.138 52.977-67.945 88.571-123.94 88.571zM707.758 322.77c-14.234 8.486-32.648 3.82-41.126-10.414-32.292-54.198-91.543-87.867-154.634-87.867-62.909 0-122.076 33.523-154.406 87.488-8.515 14.211-26.936 18.831-41.155 10.317-14.213-8.517-18.831-26.941-10.317-41.152 43.11-71.954 121.999-116.652 205.875-116.652 84.119 0 163.121 44.89 206.177 117.153 8.484 14.231 3.82 32.648-10.414 41.126z" />
<glyph unicode="&#xe915;" glyph-name="heat-system" d="M982.678-18.212h-199.805v136.267c9.706 3.432 18.115 9.778 24.076 18.172 5.962 8.392 9.184 18.422 9.226 28.717v532.812c13.225 0.074 25.887 5.361 35.238 14.712s14.638 22.014 14.713 35.239c0 13.248-5.262 25.953-14.631 35.321s-22.073 14.63-35.321 14.63h-5.644c-17.668 36.931-89.53 149.854-310.714 149.854s-293.047-112.923-310.713-149.854h-5.644c-13.225-0.074-25.887-5.361-35.239-14.712s-14.638-22.014-14.713-35.239c0-13.248 5.263-25.953 14.63-35.321s22.073-14.63 35.321-14.63v-532.812c0.043-10.295 3.265-20.325 9.226-28.717 5.961-8.394 14.369-14.741 24.075-18.172v-136.267h-199.805c-4.416 0-8.651-1.753-11.774-4.875-3.123-3.124-4.877-7.358-4.877-11.774s1.754-8.652 4.877-11.774c3.123-3.124 7.358-4.878 11.774-4.878h965.723c4.418 0 8.652 1.753 11.774 4.878 3.124 3.122 4.878 7.358 4.878 11.774s-1.753 8.649-4.878 11.774c-3.122 3.122-7.355 4.875-11.774 4.875zM782.873 164.944c0-4.416-1.753-8.652-4.875-11.774-3.122-3.124-7.358-4.878-11.774-4.878h-183.156v549.463h199.805v-532.812zM416.566 114.993v-133.205h-99.902v133.205h99.902zM449.866 664.456h99.902v-66.602h-99.902v66.602zM449.866 564.554h99.902v-66.602h-99.902v66.602zM449.866 464.651h99.902v-66.602h-99.902v66.602zM449.866 364.749h99.902v-66.602h-99.902v66.602zM449.866 264.846h99.902v-66.602h-99.902v66.602zM549.768 697.756h-99.902v66.602h99.902v-66.602zM449.866 164.944h99.902v-66.602h-99.902v66.602zM583.068 114.993h99.902v-133.205h-99.902v133.205zM832.824 747.707c0.005-2.219-0.447-4.415-1.321-6.454-0.877-2.039-2.16-3.877-3.774-5.401-1.501-1.537-3.302-2.755-5.287-3.579s-4.116-1.238-6.266-1.216h-233.107v33.301h233.107c4.416 0 8.652-1.754 11.774-4.877s4.875-7.358 4.875-11.774zM499.817 914.211c178.159 0 248.607-77.391 272.834-116.553h-545.667c24.226 39.162 94.675 116.553 272.833 116.553zM166.809 747.707c-0.003 2.219 0.447 4.415 1.323 6.454s2.16 3.877 3.772 5.401c1.503 1.537 3.302 2.755 5.288 3.579s4.118 1.238 6.268 1.216h233.106v-33.301h-233.106c-4.416 0-8.651 1.754-11.774 4.877s-4.877 7.358-4.877 11.774zM416.566 697.756v-549.463h-183.155c-4.416 0-8.651 1.753-11.774 4.878-3.123 3.122-4.877 7.358-4.877 11.774v532.812h199.806zM250.061-18.212v133.205h33.3v-133.205h-33.3zM449.866-18.212v83.254h99.902v-83.254h-99.902zM716.273-18.212v133.205h33.3v-133.205h-33.3zM466.517 847.608h66.6c4.418 0 8.652 1.754 11.774 4.877 3.124 3.123 4.878 7.358 4.878 11.774s-1.753 8.651-4.878 11.774c-3.122 3.122-7.355 4.877-11.774 4.877h-66.6c-4.416 0-8.652-1.754-11.774-4.877-3.124-3.122-4.878-7.358-4.878-11.774s1.753-8.651 4.878-11.774c3.122-3.122 7.358-4.877 11.774-4.877zM300.012 181.595h16.651c13.247 0 25.952 5.262 35.321 14.631s14.631 22.073 14.631 35.321v382.959c0 13.25-5.262 25.955-14.631 35.323-9.368 9.366-22.073 14.628-35.321 14.628h-16.651c-13.247 0-25.952-5.262-35.321-14.628-9.368-9.368-14.631-22.073-14.631-35.323v-382.959c0-13.247 5.262-25.952 14.631-35.321s22.073-14.631 35.321-14.631zM316.663 214.895h-16.651c-4.416 0-8.652 1.756-11.774 4.878s-4.878 7.358-4.878 11.774v49.951h49.951v-49.951c0-4.416-1.753-8.652-4.875-11.774s-7.358-4.878-11.774-4.878zM333.312 448.002v-49.951h-49.951v49.951h49.951zM283.361 481.302v49.951h49.951v-49.951h-49.951zM333.312 364.749v-49.951h-49.951v49.951h49.951zM300.012 631.156h16.651c4.416 0 8.652-1.753 11.774-4.875 3.122-3.124 4.875-7.358 4.875-11.776v-49.951h-49.951v49.951c0 4.418 1.756 8.652 4.878 11.776 3.122 3.122 7.358 4.875 11.774 4.875z" />
<glyph unicode="&#xe916;" glyph-name="hello" d="M1013.715 475.765c0.013 12.040-4.678 23.357-13.19 31.869-17.472 17.468-45.965 17.54-63.526 0.164-9.606-9.316-173.664-172.891-188.026-187.167-14.042-13.989-36.774-13.944-50.765 0.096-13.997 14.046-13.952 36.776 0.096 50.771 86.784 86.518 225.293 224.463 312.141 310.97 8.557 8.512 13.267 19.83 13.28 31.88s-4.672 23.38-13.19 31.901l-1.242 1.24c-17.517 17.516-46.054 17.548-63.616 0.074-56.8-56.492-221.709-220.758-280.422-279.245-14.042-13.99-36.77-13.948-50.764 0.096-13.992 14.042-13.956 36.769 0.084 50.764 89.662 89.447 212.881 211.998 302.244 301.050 8.544 8.506 13.248 19.824 13.267 31.871 0.013 12.048-4.672 23.378-13.19 31.896l-1.523 1.524c-8.512 8.506-19.821 13.192-31.853 13.192-12.026 0-23.334-4.684-31.84-13.192l-301.513-301.506c-14.017-14.018-36.749-14.018-50.769 0s-14.020 36.75 0 50.77l247.373 247.374c8.506 8.508 13.19 19.818 13.19 31.848s-4.685 23.338-13.19 31.844l-1.005 1.008c-17.53 17.526-46.099 17.532-63.661-0.032l-402.568-402.571c-11.376-11.376-28.929-13.794-42.957-5.92s-21.106 24.118-17.318 39.754l68.853 284.333c6.712 27.714-8.432 55.974-35.226 65.736-6.32 2.302-12.814 3.448-19.264 3.448-9.164 0-18.246-2.306-26.637-6.876-14.302-7.786-24.174-20.816-27.796-36.69l-5.318-23.3c-26.818-117.483-71.030-235.308-131.409-350.201-36.096-68.68-49.838-149.043-38.694-226.283 11.516-79.827 47.846-152.269 105.059-209.485 70.223-70.221 163.572-108.883 262.874-108.883h0.252c99.395 0.064 192.793 38.861 262.984 109.235l89.462 89.709 276.109 275.095c8.506 8.484 13.197 19.8 13.203 31.838zM926.534 179.686c6.515 15.232-0.544 32.864-15.776 39.386s-32.864-0.544-39.386-15.776c-10.061-23.507-24.429-44.691-42.688-62.95-22.317-22.317-48.685-38.65-78.368-48.55-15.718-5.242-24.211-22.234-18.97-37.952 4.192-12.57 15.898-20.518 28.454-20.518 3.149 0 6.349 0.499 9.498 1.549 38.598 12.877 72.858 34.086 101.811 63.046 23.686 23.693 42.336 51.2 55.424 81.766zM1005.811 163.162c-15.232 6.528-32.864-0.525-39.392-15.757-14.022-32.698-34.010-62.157-59.411-87.558-29.542-29.542-64.294-51.616-103.29-65.594-15.597-5.587-23.706-22.765-18.112-38.362 4.39-12.256 15.93-19.885 28.237-19.885 3.36 0 6.784 0.57 10.125 1.766 47.398 16.992 89.613 43.795 125.466 79.648 30.822 30.822 55.091 66.605 72.128 106.349 6.528 15.226-0.525 32.864-15.75 39.392z" />
<glyph unicode="&#xe917;" glyph-name="left-arrow" d="M755.142-63.981c15.136-0.333 29.997 4.051 42.522 12.557s22.086 20.704 27.36 34.893c5.267 14.195 5.99 29.67 2.054 44.288-3.93 14.618-12.32 27.642-24 37.274l-445.66 381.792 445.66 381.657c8.083 5.938 14.848 13.477 19.878 22.152s8.211 18.297 9.35 28.259c1.139 9.962 0.211 20.050-2.726 29.636-2.944 9.586-7.827 18.465-14.362 26.075-6.528 7.61-14.56 13.783-23.584 18.145-9.030 4.362-18.861 6.813-28.884 7.199-10.019 0.387-20.011-1.294-29.349-4.948s-17.82-9.196-24.917-16.28l-510.241-436.562c-8.013-6.838-14.447-15.325-18.859-24.89s-6.697-19.977-6.697-30.511c0-10.534 2.285-20.945 6.697-30.51s10.846-18.061 18.859-24.899l510.241-436.984c12.89-11.443 29.422-17.939 46.657-18.342z" />
<glyph unicode="&#xe918;" glyph-name="location" d="M480.781 928c-158.4 0-288-129.6-288-288s288-528 288-528c0 0 287.999 369.6 287.999 528s-129.599 288-287.999 288zM480.781 544c-52.8 0-96 43.2-96 96s43.2 96 96 96c52.8 0 96-43.2 96-96s-43.2-96-96-96zM783.181 395.2c-14.4-28.8-28.8-57.6-48-86.4 81.6-28.8 129.6-67.2 129.6-100.8 0-57.6-153.6-144-383.999-144s-384 86.4-384 144c0 33.6 48 72 129.6 105.6-19.2 28.8-33.6 57.6-48 86.4-110.4-48-177.6-115.2-177.6-192 0-134.4 201.6-240 470.4-240 239.999 0 489.599 81.6 489.599 240 0 76.8-67.2 144-177.6 187.2z" />
<glyph unicode="&#xe919;" glyph-name="location-2" d="M559.4-38.4c102.6 128.397 336.6 439.6 336.6 614.4 0 212-172 384-384 384s-384-172-384-384c0-174.8 234-486.003 336.6-614.4 24.6-30.598 70.2-30.598 94.799 0zM512 448c-70.6 0-128 57.4-128 128s57.4 128 128 128c70.6 0 128-57.4 128-128s-57.4-128-128-128z" />
<glyph unicode="&#xe91a;" glyph-name="padlock" d="M806.656 576h-30.643v128c0 141.184-109.926 256-245.103 256s-245.107-114.816-245.107-256v-128h-30.638c-50.655 0-91.915-43.051-91.915-96v-448c0-52.947 41.26-96 91.915-96h551.491c50.656 0 91.91 43.053 91.91 96v448c0 52.949-41.254 96-91.91 96zM367.505 704c0 94.123 73.287 170.667 163.404 170.667s163.407-76.544 163.407-170.667v-128h-326.812v128zM571.761 246.528v-97.197c0-23.552-18.26-42.662-40.851-42.662s-40.851 19.11-40.851 42.662v97.197c-24.306 14.803-40.851 42.029-40.851 73.472 0 47.061 36.643 85.333 81.702 85.333s81.702-38.272 81.702-85.333c0-31.443-16.545-58.669-40.851-73.472z" />
<glyph unicode="&#xe91b;" glyph-name="paper-plane" d="M352.107 222.648v-186.248c0-13.011 8.353-24.534 20.721-28.63 3.092-1.006 6.264-1.488 9.397-1.488 9.397 0 18.472 4.415 24.255 12.288l108.945 148.257-163.318 55.82zM951.85 924.297c-9.234 6.546-21.359 7.429-31.401 2.168l-903.529-471.843c-10.682-5.582-16.986-16.986-16.103-28.993 0.924-12.047 8.915-22.327 20.279-26.223l251.181-85.858 534.929 457.389-413.937-498.71 420.966-143.878c3.132-1.048 6.421-1.608 9.716-1.608 5.463 0 10.885 1.488 15.661 4.379 7.632 4.656 12.812 12.487 14.137 21.281l110.429 742.902c1.644 11.244-3.090 22.408-12.33 28.993z" />
<glyph unicode="&#xe91c;" glyph-name="pipeline" d="M1006.344 395.031h-88.274v35.313c0 19.5-15.811 35.31-35.31 35.31h-35.313c-19.5 0-35.31-15.811-35.31-35.31v-35.313h-105.93v17.656c-0.051 41.93-29.542 78.060-70.62 86.508v37.079c0 19.5-15.811 35.31-35.31 35.31h-35.31v141.241h141.24c29.251 0 52.966 23.715 52.966 52.965s-23.716 52.966-52.966 52.966h-388.413c-29.251 0-52.966-23.716-52.966-52.966s23.716-52.965 52.966-52.965h141.24v-141.241h-35.31c-19.5 0-35.31-15.811-35.31-35.31v-37.079c-41.078-8.448-70.569-44.577-70.62-86.508v-17.656h-105.931v35.313c0 19.5-15.81 35.31-35.31 35.31h-35.31c-19.5 0-35.31-15.811-35.31-35.31v-35.313h-88.276c-9.75 0-17.655-7.905-17.655-17.654v-211.863c0-9.748 7.905-17.654 17.655-17.654h88.276v-35.31c0-19.502 15.81-35.313 35.31-35.313h35.31c19.5 0 35.31 15.811 35.31 35.313v35.31h107.698c8.448-41.078 44.577-70.569 86.51-70.623h211.86c41.933 0.054 78.062 29.545 86.51 70.623h107.697v-35.31c0-19.502 15.811-35.313 35.31-35.313h35.313c19.5 0 35.31 15.811 35.31 35.313v35.31h88.274c9.751 0 17.656 7.905 17.656 17.654v211.863c0 9.748-7.905 17.654-17.656 17.654zM300.137 765.791c0 9.75 7.905 17.655 17.656 17.655h388.413c9.751 0 17.656-7.905 17.656-17.655s-7.905-17.655-17.656-17.655h-388.413c-9.751 0-17.656 7.905-17.656 17.655zM494.344 712.825h35.313v-141.241h-35.313v141.241zM423.724 536.274h176.553v-35.31h-176.553v35.31zM35.31 183.171v176.55h70.621v-176.55h-70.621zM176.552 112.55h-35.31v317.793h35.31v-317.793zM211.862 359.721h105.931v-35.31h-52.966c-9.749 0-17.655-7.905-17.655-17.654 0-9.751 7.905-17.656 17.655-17.656h52.966v-105.93h-105.931v176.55zM617.93 112.55h-211.86c-29.251 0-52.966 23.713-52.966 52.964v247.173c0 29.251 23.716 52.966 52.966 52.966h211.86c29.251 0 52.966-23.716 52.966-52.966v-247.173c0-29.251-23.716-52.964-52.966-52.964zM706.207 183.171v35.31h52.966c9.748 0 17.654 7.905 17.654 17.654 0 9.751-7.905 17.656-17.654 17.656h-52.966v105.93h105.93v-176.55h-105.93zM882.76 112.55h-35.313v317.793h35.313v-317.793zM988.69 183.171h-70.62v176.55h70.62v-176.55zM522.266 427.041c-6.139 4.378-14.38 4.378-20.518 0-3.863-2.793-95.672-69.527-95.672-173.251 0-58.501 47.432-105.93 105.93-105.93 58.501 0 105.933 47.429 105.933 105.93 0 103.724-91.812 170.458-95.672 173.251zM512.005 183.171c-38.999 0-70.62 31.621-70.62 70.62 0 66.596 48.837 116.966 70.62 136.12 21.786-19.154 70.623-69.524 70.623-136.12 0-38.999-31.621-70.62-70.623-70.62z" />
<glyph unicode="&#xe91d;" glyph-name="play" d="M883.182 487.516l-755.499 436.197c-6.91 4.022-14.757 6.155-22.752 6.184h-0.132c-7.999-0.032-15.85-2.165-22.765-6.187-6.964-3.971-12.746-9.725-16.752-16.669s-6.092-14.829-6.044-22.846v-872.389c-0.032-8.017 2.057-15.908 6.054-22.865 3.997-6.951 9.761-12.728 16.708-16.739s14.83-6.114 22.852-6.102c8.022 0.018 15.897 2.15 22.829 6.192l755.501 436.197c6.939 4.004 12.698 9.764 16.703 16.7s6.114 14.804 6.114 22.814c0 8.009-2.108 15.877-6.114 22.814s-9.764 12.696-16.703 16.7z" />
<glyph unicode="&#xe91e;" glyph-name="plumber" d="M869.372 94.944h-41.289c-2.078 0.001-4.119-0.545-5.919-1.584-1.801-1.038-3.296-2.533-4.334-4.331l-20.64-35.758c-1.038-1.798-1.585-3.839-1.585-5.916s0.547-4.116 1.585-5.915l20.643-35.755c1.040-1.8 2.534-3.294 4.334-4.333s3.842-1.585 5.92-1.584h41.287c2.078-0.001 4.121 0.545 5.92 1.584s3.294 2.533 4.334 4.333l20.644 35.755c1.038 1.798 1.585 3.838 1.585 5.915s-0.547 4.118-1.585 5.916l-20.66 35.758c-1.038 1.797-2.531 3.29-4.33 4.328-1.797 1.038-3.836 1.586-5.912 1.586zM862.541 23.431h-27.628l-13.802 23.924 13.802 23.927h27.628l13.802-23.927-13.802-23.924zM574.833 368.177c-34.409 8.573-67.522 21.699-98.46 39.030l-24.59 13.512v11.126c23.075 20.601 38.334 48.533 43.203 79.082l8.766 55.923c7.298 0.72 14.206 3.633 19.815 8.356 5.607 4.725 9.653 11.038 11.603 18.106 1.948 7.070 1.709 14.564-0.685 21.494-2.396 6.931-6.833 12.973-12.732 17.33 4.164 12.207 7.33 24.73 9.466 37.45h4.044c8.273-0.012 16.279 2.934 22.573 8.304s10.462 12.812 11.753 20.983c1.291 8.173-0.381 16.537-4.712 23.587-4.331 7.048-11.039 12.318-18.912 14.858-1.595 40.946-15.392 80.479-39.619 113.526-22.726 31.007-54.457 54.254-90.872 66.575l1.292 12.458c0.17 1.648-0.007 3.314-0.521 4.889s-1.353 3.025-2.462 4.255c-1.111 1.23-2.466 2.214-3.981 2.887-1.513 0.673-3.151 1.021-4.808 1.020h-89.874c-1.657 0-3.296-0.348-4.808-1.021-1.514-0.673-2.87-1.657-3.979-2.887s-1.947-2.68-2.46-4.255c-0.513-1.575-0.691-3.24-0.521-4.888l1.292-12.46c-36.443-12.358-68.181-35.665-90.881-66.739-24.149-33.020-37.927-72.48-39.58-113.355-7.878-2.535-14.588-7.803-18.924-14.852-4.335-7.048-6.010-15.413-4.72-23.587 1.289-8.175 5.456-15.62 11.75-20.992s14.3-8.317 22.576-8.307h3.049c2.14-9.768 5.072-19.348 8.766-28.64l4.484-11.274c-5.156-4.738-8.831-10.866-10.582-17.646s-1.501-13.922 0.717-20.564c2.22-6.643 6.313-12.5 11.786-16.867s12.095-7.057 19.064-7.745l8.766-55.923c4.457-27.998 17.662-53.87 37.724-73.903v-20.411l-24.616-12.36c-1.504-0.412-2.912-1.119-4.141-2.081l-2.417-1.213c-29.354-14.461-60.289-25.463-92.183-32.782-36.263-8.615-68.548-29.234-91.614-58.511s-35.557-65.491-35.446-102.762v-242.003c0-3.138 1.246-6.147 3.465-8.365 2.219-2.22 5.228-3.466 8.366-3.466h660.008c3.137 0 6.147 1.246 8.365 3.466 2.218 2.218 3.466 5.227 3.466 8.365v242.003c0.111 37.271-12.38 73.484-35.446 102.761-23.065 29.278-55.349 49.898-91.611 58.512zM136.203-23.268h-94.321v230.172c-0.087 29.341 8.942 57.984 25.839 81.973s40.826 42.135 68.482 51.936v-364.081zM297.224 889.13c7.505 3.407 15.278 6.191 23.239 8.323 2.723 0.724 5.098 2.397 6.698 4.716s2.319 5.134 2.029 7.937l-0.95 9.161h63.631l-0.95-9.161c-0.29-2.803 0.428-5.617 2.029-7.937 1.599-2.32 3.975-3.992 6.698-4.716 7.96-2.133 15.732-4.912 23.238-8.311v-16.169c-0.006-19.274-5.827-38.098-16.703-54.011s-26.299-28.173-44.256-35.18c-18.899 6.44-35.303 18.64-46.909 34.885s-17.828 35.72-17.793 55.686v14.777zM232.793 836.618c11.274 15.294 25.059 28.566 40.77 39.253v-1.518c-0.045-25.218 7.917-49.8 22.736-70.206s35.732-35.58 59.727-43.34l2.45-0.789c2.443-0.796 5.080-0.774 7.51 0.063 23.51 8.091 43.909 23.32 58.352 43.56 14.441 20.24 22.206 44.484 22.211 69.348v2.924c15.708-10.653 29.496-23.892 40.777-39.155 20.867-28.498 32.968-62.463 34.82-97.735h-324.168c1.915 35.214 14.010 69.117 34.816 97.593zM184.864 693.248c-1.464-0.019-2.918 0.252-4.276 0.799s-2.596 1.359-3.639 2.387c-1.041 1.028-1.869 2.254-2.435 3.606s-0.857 2.801-0.857 4.266c0 1.464 0.291 2.915 0.857 4.266 0.565 1.35 1.393 2.576 2.435 3.604 1.043 1.030 2.28 1.84 3.639 2.387s2.812 0.819 4.276 0.799h350.383c1.464 0.020 2.918-0.251 4.276-0.799 1.359-0.547 2.596-1.357 3.639-2.387 1.041-1.028 1.869-2.254 2.435-3.604s0.857-2.802 0.857-4.266c0-1.465-0.291-2.915-0.857-4.266s-1.393-2.577-2.435-3.606c-1.043-1.028-2.28-1.84-3.639-2.387s-2.812-0.818-4.276-0.799h-42.042c-0.016 0.001-0.032 0.001-0.048 0h-308.293zM507.197 669.586c-0.531-2.83-1.128-5.648-1.775-8.453v8.453h1.775zM220.466 669.586v-24.417l-1.801 4.524c-2.574 6.484-4.723 13.129-6.434 19.893h8.235zM254.292 514.59l-10.308 65.745c-0.436 2.786-1.853 5.325-3.998 7.158-2.143 1.835-4.87 2.841-7.69 2.841h-6.533c-1.676-0.020-3.34 0.291-4.895 0.919-1.556 0.627-2.971 1.556-4.164 2.735s-2.14 2.582-2.786 4.129c-0.646 1.548-0.979 3.208-0.979 4.883 0 1.677 0.333 3.337 0.979 4.885 0.646 1.546 1.594 2.949 2.786 4.128s2.608 2.109 4.164 2.736c1.555 0.626 3.219 0.939 4.895 0.917h6.533c3.137 0 6.147 1.248 8.365 3.466 2.22 2.218 3.466 5.228 3.466 8.365v42.089h237.637v-42.089c0-3.137 1.246-6.147 3.464-8.365 2.22-2.218 5.228-3.466 8.367-3.466h6.21c1.995-1.429 4.386-2.198 6.839-2.197 0.182 0 0.361 0.035 0.542 0.042 2.254-1.511 3.965-3.709 4.875-6.267 0.912-2.559 0.976-5.341 0.186-7.938-0.792-2.597-2.397-4.872-4.579-6.487s-4.826-2.486-7.542-2.485h-6.532c-2.82 0-5.547-1.008-7.69-2.841s-3.561-4.371-3.996-7.158l-10.308-65.745c-4.061-25.899-17.241-49.495-37.163-66.537s-45.275-26.406-71.493-26.406c-26.216 0-51.569 9.365-71.491 26.406s-33.101 40.638-37.163 66.537zM292.299 412.735v5.466c2.533-1.578 5.116-3.089 7.764-4.501 19.348-10.338 40.947-15.748 62.884-15.748s43.536 5.41 62.884 15.748c0.769 0.41 1.524 0.838 2.283 1.262v-47.508c-8.677-9.337-19.185-16.785-30.869-21.878s-24.293-7.722-37.039-7.722c-12.745 0-25.355 2.629-37.039 7.722s-22.192 12.54-30.869 21.878v38.922c0.586 2.080 0.586 4.279 0 6.359zM258.975 385.286l9.662 4.85v-27.168c0.001-2.801 0.995-5.509 2.805-7.645 10.924-12.888 24.521-23.243 39.849-30.345s32.019-10.781 48.914-10.781c16.895 0 33.586 3.679 48.914 10.781s28.926 17.457 39.849 30.345c1.811 2.137 2.805 4.847 2.805 7.648v30.762l9.356-5.142v-89.816c0-26.807-10.648-52.517-29.604-71.471-18.956-18.956-44.665-29.605-71.472-29.605s-52.515 10.65-71.471 29.605c-18.956 18.954-29.605 44.664-29.605 71.471l-0.003 86.511zM465.232-23.268h-190.688v103.633c30.113-12.94 62.536-19.641 95.311-19.697s65.22 6.535 95.376 19.374v-103.31zM560.245-23.268h-71.351v121.99c0.001 2.034-0.524 4.034-1.523 5.808-0.998 1.773-2.437 3.257-4.177 4.311s-3.724 1.643-5.757 1.706c-2.034 0.065-4.050-0.397-5.853-1.34-31.394-16.404-66.302-24.941-101.724-24.875-35.42 0.065-70.297 8.73-101.63 25.251-1.803 0.952-3.822 1.422-5.86 1.363s-4.025-0.642-5.772-1.695c-1.745-1.054-3.189-2.54-4.191-4.315s-1.529-3.78-1.529-5.819v-122.385h-91.013v370.725c25.88 6.502 51.129 15.292 75.451 26.268v-74.961c0-33.082 13.142-64.811 36.535-88.204s55.12-36.535 88.202-36.535c33.084 0 64.811 13.143 88.204 36.535 23.393 23.393 36.535 55.121 36.535 88.204v77.393c24.158-11.989 49.429-21.593 75.451-28.675v-370.75zM678.227-23.268h-94.32v364.080c27.657-9.8 51.587-27.948 68.483-51.936s25.926-52.631 25.838-81.972v-230.172zM360.054 264.354c3.085 0 6.101 0.914 8.665 2.628 2.566 1.713 4.565 4.149 5.746 6.999 1.18 2.848 1.488 5.985 0.887 9.010s-2.087 5.805-4.268 7.986-4.96 3.666-7.986 4.268c-3.026 0.603-6.161 0.293-9.011-0.887-2.85-1.181-5.284-3.18-6.998-5.744-1.715-2.566-2.629-5.58-2.628-8.665 0.004-4.135 1.648-8.098 4.572-11.022s6.887-4.568 11.020-4.572zM360.054 215.425c3.085 0 6.101 0.914 8.665 2.628 2.566 1.713 4.565 4.149 5.744 6.999 1.181 2.848 1.49 5.985 0.888 9.010-0.601 3.026-2.085 5.805-4.268 7.986-2.181 2.181-4.96 3.666-7.984 4.269-3.026 0.601-6.161 0.293-9.011-0.887-2.85-1.181-5.286-3.18-6.999-5.744s-2.628-5.58-2.628-8.664c0.004-4.135 1.648-8.1 4.572-11.023 2.922-2.923 6.887-4.568 11.020-4.573zM988.293 563.301l-0.482 0.515c-1.321 1.411-2.967 2.476-4.795 3.104s-3.782 0.798-5.69 0.495c-1.91-0.301-3.715-1.067-5.26-2.228s-2.782-2.683-3.603-4.432l-58.287-58.289-75.477 14.019-14.017 75.479 60.312 60.305c1.099 1.099 1.972 2.404 2.567 3.839s0.901 2.975 0.901 4.53-0.306 3.094-0.901 4.53c-0.596 1.436-1.468 2.74-2.567 3.839l-0.513 0.513c-1.948 1.946-4.517 3.151-7.26 3.407-29.138 2.742-58.354-4.374-82.967-20.209s-43.2-39.473-52.784-67.127c-9.584-27.652-9.61-57.722-0.074-85.393 9.536-27.67 28.082-51.338 52.668-67.216v-311.912c-15.312-12.174-26.458-28.809-31.895-47.6s-4.892-38.81 1.555-57.278c6.447-18.469 18.48-34.476 34.429-45.802s35.028-17.411 54.589-17.411c19.563 0 38.639 6.085 54.589 17.411s27.983 27.332 34.429 45.802c6.447 18.468 6.991 38.487 1.555 57.278s-16.583 35.426-31.895 47.6v299.547c26.449 10.019 48.931 28.356 64.062 52.253 15.129 23.897 22.091 52.060 19.837 80.254 0.323 1.814 0.218 3.679-0.307 5.447s-1.457 3.386-2.719 4.729zM919.352 47.355c0-13.968-4.142-27.622-11.901-39.237-7.761-11.614-18.791-20.667-31.695-26.014-12.905-5.345-27.106-6.744-40.806-4.020-13.7 2.726-26.285 9.451-36.162 19.329s-16.605 22.46-19.329 36.16c-2.726 13.7-1.327 27.9 4.018 40.806s14.398 23.936 26.012 31.696c11.613 7.761 25.268 11.903 39.237 11.903 18.725-0.022 36.675-7.469 49.916-20.708 13.24-13.24 20.688-31.192 20.709-49.916zM813.711 134.874v286.062c22.28-8.636 46.504-10.99 70.032-6.809v-279.253c-22.472 9.026-47.561 9.026-70.032 0zM936.689 467.071c-11.932-11.925-26.513-20.862-42.555-26.082s-33.091-6.575-49.756-3.955c-16.665 2.621-32.475 9.142-46.142 19.033-13.665 9.892-24.801 22.873-32.497 37.885-7.697 15.011-11.737 31.63-11.79 48.5-0.055 16.87 3.878 33.514 11.479 48.575s18.651 28.112 32.255 38.091c13.602 9.979 29.37 16.602 46.018 19.329l-44.155-44.156c-1.359-1.357-2.365-3.026-2.934-4.86-0.57-1.833-0.684-3.779-0.332-5.667l16.639-89.588c0.438-2.348 1.576-4.51 3.265-6.199 1.69-1.69 3.851-2.828 6.2-3.265l89.588-16.641c1.888-0.35 3.832-0.237 5.665 0.332 1.835 0.57 3.502 1.576 4.86 2.934l44.169 44.169c-3.593-22.149-14.084-42.597-29.979-58.436zM340.908 824.724h42.446c3.138 0 6.147 1.247 8.367 3.465 2.218 2.219 3.464 5.228 3.464 8.366s-1.246 6.147-3.464 8.366c-2.22 2.219-5.228 3.465-8.367 3.465h-42.446c-3.138 0-6.147-1.247-8.365-3.465-2.22-2.219-3.466-5.228-3.466-8.366s1.246-6.147 3.466-8.366c2.218-2.219 5.227-3.465 8.365-3.465zM340.908 863.859h42.446c3.138 0 6.147 1.247 8.367 3.465 2.218 2.219 3.464 5.228 3.464 8.366s-1.246 6.147-3.464 8.366c-2.22 2.219-5.228 3.465-8.367 3.465h-42.446c-3.138 0-6.147-1.247-8.365-3.465-2.22-2.219-3.466-5.228-3.466-8.366s1.246-6.147 3.466-8.366c2.218-2.219 5.227-3.465 8.365-3.465z" />
<glyph unicode="&#xe91f;" glyph-name="plus" d="M972.795 499.2h-409.59v409.603c0 28.256-22.943 51.197-51.208 51.197-28.256 0-51.197-22.941-51.197-51.197v-409.603h-409.603c-28.256 0-51.197-22.941-51.197-51.197 0-28.265 22.941-51.208 51.197-51.208h409.603v-409.59c0-28.268 22.941-51.21 51.197-51.21 28.265 0 51.208 22.943 51.208 51.21v409.59h409.59c28.268 0 51.21 22.943 51.21 51.208 0 28.256-22.943 51.197-51.21 51.197z" />
<glyph unicode="&#xe920;" glyph-name="pump" d="M460.8 891.734v17.066c0 28.276-22.925 51.2-51.2 51.2h-204.8c-28.276 0-51.2-22.924-51.2-51.2v-17.066c0.090-21.62 13.75-40.854 34.134-48.060v-395.674c0.24-142.262 88.628-269.478 221.866-319.334v-73.198c-28.278 0-51.2-22.922-51.2-51.2v-17.065c0-28.278 22.925-51.2 51.2-51.2h238.935c28.275 0 51.2 22.922 51.2 51.2v17.065c0 28.278-22.925 51.2-51.2 51.2v73.198c154.642 57.7 245.778 217.848 216.41 380.268-29.371 162.422-170.824 280.511-335.88 280.401-34.752-0.012-69.292-5.394-102.4-15.958v70.298c20.385 7.206 34.045 26.44 34.135 48.060zM187.734 908.8c0 9.426 7.642 17.066 17.066 17.066h204.8c9.426 0 17.065-7.642 17.065-17.066v-17.066c0-9.426-7.639-17.066-17.065-17.066h-204.8c-9.426 0-17.066 7.642-17.066 17.066v17.066zM665.6 4.265v-17.065c0-9.426-7.639-17.065-17.065-17.065h-238.935c-9.426 0-17.065 7.639-17.065 17.065v17.065c0 9.426 7.642 17.068 17.065 17.068h238.935c9.423 0.003 17.065-7.642 17.065-17.068zM614.4 55.465h-170.665v62.431c55.903-14.973 114.762-14.973 170.665 0v-62.431zM836.265 448c0-169.661-137.536-307.2-307.2-307.2-169.661 0-307.199 137.539-307.199 307.2v392.534h170.666v-80.214c-35.832-15.454-68.687-37.056-97.075-63.831-4.552-4.165-6.5-10.46-5.094-16.466 1.4-6.008 5.937-10.79 11.86-12.508 5.924-1.72 12.314-0.11 16.717 4.214 56.845 53.585 132.004 83.443 210.125 83.473 169.582-0.2 307.005-137.623 307.2-307.202zM350.282 619.756c-11.679-0.474-22.29-6.92-28.091-17.065l-30.72-53.179c-5.87-10.102-6.134-22.51-0.701-32.855l15.821-30.295v-76.8l-15.821-30.292c-5.432-10.348-5.169-22.764 0.701-32.87l30.72-53.161c5.801-10.148 16.412-16.594 28.091-17.068l34.217-1.485 66.56-38.418 18.365-28.859c6.254-9.851 17.121-15.813 28.792-15.785h61.44c11.674-0.026 22.543 5.942 28.792 15.803l18.363 28.841 66.647 38.418 34.217 1.485c11.679 0.474 22.29 6.922 28.091 17.068l30.72 53.179c5.87 10.102 6.134 22.51 0.701 32.855l-15.821 30.292v76.8l15.821 30.295c5.432 10.348 5.169 22.761-0.701 32.87l-30.72 53.161c-5.801 10.145-16.412 16.591-28.091 17.065l-34.217 1.485-66.493 38.382-18.363 28.861c-6.254 9.851-17.124 15.811-28.792 15.785h-61.473c-11.676 0.024-22.546-5.942-28.792-15.803l-18.399-28.844-66.56-38.418-34.304-1.449zM397.914 589.652l73.9 42.665c2.376 1.38 4.388 3.305 5.87 5.614l20.616 32.428h61.44l20.616-32.428c1.482-2.312 3.494-4.234 5.87-5.614l73.897-42.665c2.371-1.38 5.043-2.161 7.782-2.271l38.382-1.705 30.72-53.146-17.751-34.015c-1.265-2.442-1.925-5.151-1.928-7.903v-85.281c0.003-2.749 0.666-5.46 1.928-7.903l17.751-33.994-30.72-53.164-38.382-1.705c-2.739-0.11-5.412-0.891-7.782-2.271l-73.897-42.665c-2.376-1.38-4.388-3.305-5.87-5.614l-20.616-32.428h-61.407l-20.616 32.428c-1.482 2.312-3.497 4.234-5.87 5.614l-73.897 42.665c-2.371 1.38-5.043 2.161-7.782 2.271l-38.382 1.705-30.72 53.146 17.748 34.015c1.267 2.442 1.928 5.153 1.928 7.903v85.332c0 2.752-0.663 5.46-1.928 7.903l-17.748 33.997 30.72 53.161 38.382 1.708c2.724 0.097 5.384 0.86 7.747 2.217zM529.075 294.566c84.713 0.095 153.321 68.828 153.257 153.544-0.061 84.713-68.772 153.344-153.485 153.316-84.716-0.033-153.372-68.716-153.372-153.431 0.141-84.741 68.856-153.38 153.6-153.428zM529.075 567.293c65.864-0.095 119.188-53.548 119.127-119.411-0.064-65.864-53.491-119.214-119.352-119.181-65.864 0.031-119.24 53.432-119.24 119.296 0.092 65.912 53.553 119.296 119.465 119.296zM529.075 396.8c28.275 0 51.2 22.922 51.2 51.2 0 28.275-22.925 51.2-51.2 51.2-28.278 0-51.2-22.925-51.2-51.2 0-28.278 22.925-51.2 51.2-51.2zM529.075 465.065c9.426 0 17.065-7.642 17.065-17.065 0-9.426-7.639-17.065-17.065-17.065s-17.065 7.642-17.065 17.065c0 9.426 7.639 17.065 17.065 17.065z" />
<glyph unicode="&#xe921;" glyph-name="repair" d="M181.447 522.87h53.247c5.657-19.026 13.262-37.385 22.715-54.83l-37.651-37.651c-6.442-6.442-6.442-16.885 0-23.324 6.433-6.442 16.891-6.442 23.324 0l46.558 46.558c5.361 5.352 6.376 13.676 2.476 20.166-13.023 21.65-22.715 45.049-28.827 69.577-1.83 7.341-8.438 12.495-16.009 12.495h-65.833v98.973h65.833c7.571 0 14.179 5.156 16.009 12.513 6.103 24.519 15.804 47.928 28.827 69.578 3.909 6.491 2.885 14.805-2.476 20.166l-46.558 46.559 69.982 69.982 46.558-46.559c5.354-5.361 13.676-6.376 20.166-2.474 21.652 13.023 45.058 22.714 69.58 28.826 7.348 1.823 12.502 8.429 12.502 16.001v65.834h98.973v-65.834c0-7.571 5.156-14.178 12.513-16.001 24.519-6.112 47.928-15.811 69.577-28.826 6.49-3.901 14.814-2.887 20.166 2.474l46.558 46.559 69.982-69.982-46.558-46.559c-5.361-5.353-6.376-13.675-2.476-20.166 13.025-21.65 22.715-45.049 28.827-69.578 1.823-7.357 8.429-12.513 16.002-12.513h65.832v-98.973h-65.832c-7.573 0-14.179-5.154-16.011-12.511-6.103-24.521-15.801-47.928-28.824-69.577-3.909-6.492-2.888-14.805 2.474-20.166l46.558-46.558c3.218-3.227 7.441-4.833 11.664-4.833 4.221 0 8.445 1.607 11.662 4.833 6.44 6.44 6.44 16.882 0 23.324l-37.651 37.649c9.45 17.454 17.055 35.813 22.715 54.832h53.246c18.195 0 32.991 14.798 32.991 32.991v98.989c0 18.195-14.796 32.991-32.991 32.991h-53.246c-5.659 19.028-13.264 37.387-22.715 54.832l37.651 37.643c6.235 6.235 9.664 14.516 9.664 23.333s-3.429 17.097-9.664 23.333l-69.982 69.982c-6.235 6.227-14.516 9.658-23.334 9.658s-17.099-3.431-23.324-9.658l-37.651-37.651c-17.451 9.452-35.813 17.056-54.832 22.714v53.248c0 18.195-14.796 32.991-32.991 32.991h-98.973c-18.193 0-32.991-14.796-32.991-32.991v-53.248c-19.019-5.658-37.387-13.262-54.83-22.714l-37.645 37.643c-12.461 12.463-34.195 12.471-46.656 0l-69.983-69.982c-6.235-6.227-9.666-14.516-9.666-23.333 0-8.808 3.431-17.098 9.666-23.325l37.652-37.651c-9.453-17.452-17.058-35.812-22.715-54.831h-53.256c-18.195 0-32.991-14.798-32.991-32.991v-98.973c0-18.186 14.796-32.984 32.991-32.984zM571.053 460.486c-6.176-2.558-10.201-8.579-10.201-15.26v-21.329c0-9.104 7.391-16.496 16.496-16.496s16.496 7.391 16.496 16.496v10.65c65.495 31.571 107.222 97.446 107.222 170.801 0 77.1-46.089 145.937-117.425 175.365-5.088 2.095-10.886 1.526-15.462-1.542-4.578-3.052-7.325-8.198-7.325-13.7v-151.874h-98.973v151.874c0 5.501-2.747 10.648-7.325 13.708-4.576 3.068-10.383 3.637-15.465 1.542-71.334-29.436-117.423-98.273-117.423-175.373 0-73.362 41.727-139.237 107.222-170.801v-8.388c0-9.107 7.389-16.496 16.496-16.496 9.104 0 16.496 7.389 16.496 16.496v19.067c0 6.681-4.025 12.702-10.204 15.251-58.937 24.314-97.018 81.183-97.018 144.871 0 55.055 28.456 105.003 74.231 133.244v-124.995c0-18.195 14.796-32.991 32.991-32.991h98.973c18.195 0 32.991 14.796 32.991 32.991v124.995c45.775-28.24 74.231-78.189 74.231-133.244 0-63.688-38.081-120.557-97.021-144.862zM948.493 382.662h-874.263c-40.925 0-74.23-33.296-74.23-74.231v-305.166c0-40.935 33.304-74.231 74.23-74.231h874.263c40.924 0 74.229 33.296 74.229 74.231v305.166c0 40.935-33.305 74.231-74.229 74.231zM866.015-37.974h-709.308v98.973c0 18.195 14.797 32.991 32.991 32.991h643.326c18.193 0 32.991-14.796 32.991-32.991v-98.973zM989.73 3.265c0-22.74-18.5-41.24-41.238-41.24h-49.487v98.973c0 36.382-29.603 65.982-65.982 65.982h-643.326c-36.381 0-65.982-29.6-65.982-65.982v-98.973h-49.487c-22.739 0-41.239 18.5-41.239 41.24v305.166c0 22.74 18.5 41.24 41.239 41.24h874.263c22.737 0 41.238-18.5 41.238-41.24v-305.166zM816.528 44.501h-610.333c-9.106 0-16.496-7.391-16.496-16.496 0-9.107 7.39-16.496 16.496-16.496h610.333c9.107 0 16.496 7.389 16.496 16.496 0 9.104-7.389 16.496-16.496 16.496zM305.161 316.678h-148.459c-18.194 0-32.991-14.796-32.991-32.991v-41.238c0-18.195 14.797-32.991 32.991-32.991h148.459c18.195 0 32.991 14.796 32.991 32.991v41.238c0 18.195-14.796 32.991-32.991 32.991zM156.702 242.449v41.238h148.459l0.018-41.238h-148.477zM874.266 291.933c-13.642 0-24.744-11.102-24.744-24.742 0-13.642 11.102-24.744 24.744-24.744s24.742 11.102 24.742 24.744c0 13.64-11.1 24.742-24.742 24.742zM791.789 291.933c-13.642 0-24.744-11.102-24.744-24.742 0-13.642 11.102-24.744 24.744-24.744s24.742 11.102 24.742 24.744c0 13.64-11.1 24.742-24.742 24.742zM709.309 291.933c-13.64 0-24.742-11.102-24.742-24.742 0-13.642 11.102-24.744 24.742-24.744 13.642 0 24.744 11.102 24.744 24.744 0 13.64-11.102 24.742-24.744 24.742z" />
<glyph unicode="&#xe922;" glyph-name="repairing" d="M444.408 331.945l-82.775 82.944c-4.265 4.268-10.752 6.144-16.553 4.436-5.975-1.705-10.583-6.313-11.948-12.288-14.508-57.684 2.048-117.245 43.86-159.229 42.668-42.668 103.596-58.883 161.452-43.351l180.736-180.736c3.244-3.244 7.508-4.948 12.116-4.948h190.295c6.825 0 13.14 4.096 15.7 10.58 2.732 6.316 1.196 13.655-3.756 18.604l-275.796 275.796c15.36 57.856-0.684 118.784-43.348 161.28-41.984 41.984-101.376 58.368-159.063 44.032-5.972-1.536-10.752-5.972-12.288-11.948-1.705-5.972 0-12.288 4.268-16.553l82.772-82.944-15.017-70.487-70.656-15.188zM560.801 435.028l-64.681 64.852h0.169c34.988 0 68.608-13.652 94.039-39.084 36.009-35.84 48.297-88.064 32.084-136.532-2.048-6.144-0.512-12.972 4.096-17.408l253.952-253.952h-141.996l-182.953 182.784c-4.608 4.608-11.436 6.144-17.408 4.096-48.471-16.212-100.695-3.924-136.704 32.084-25.6 25.6-39.255 59.223-39.084 94.38l64.684-64.852c4.096-4.096 9.897-5.804 15.7-4.608l90.452 19.284c6.656 1.367 11.776 6.484 13.143 13.143l19.284 90.281c1.024 5.632-0.684 11.604-4.78 15.532zM102.221 581.806l59.050-0.343c9.387 0 17.067 7.511 17.067 16.896 0 9.388-7.509 17.068-16.896 17.239l-41.813 0.169 1.024 182.614 134.144-0.853-1.024-182.614-37.718 0.172c-8.704 0-17.066-7.511-17.237-16.896 0-9.388 7.51-17.068 16.896-17.239l38.4-0.169c1.536-11.264 6.655-21.847 14.847-30.208 10.071-10.24 23.552-15.872 37.888-16.044l58.028-0.34c14.164 0 27.648 5.46 37.716 15.529 8.364 8.192 13.484 18.775 15.191 30.039l184.832-1.196c1.536-11.436 6.656-21.844 14.848-30.208 10.068-10.24 23.552-15.872 37.888-16.044l58.025-0.34c14.167 0 27.648 5.46 37.888 15.532 8.364 8.192 13.484 18.601 15.191 30.036l152.064-0.852c9.385 0 17.065 7.508 17.065 16.896l1.367 216.746c0 4.437-1.708 8.874-4.951 12.117-3.241 3.243-7.508 4.949-12.116 5.12l-151.892 1.195c-1.536 11.434-6.656 21.845-14.848 30.208-10.071 10.24-23.552 15.872-37.888 16.042l-57.687 0.342c0 0-0.169 0-0.34 0-26.796 0-48.98-19.798-52.908-45.568l-184.832 1.024c-1.536 11.264-6.656 21.845-14.848 30.208-10.068 10.24-23.552 15.872-37.888 16.042l-57.684 0.342c-0.172 0-0.172 0-0.34 0-26.796 0-48.983-19.798-52.907-45.568l-151.894 0.853c0 0 0 0-0.17 0-9.387 0-17.067-7.509-17.067-16.896l-1.365-216.747c0-4.436 1.706-8.876 4.949-12.116 3.243-3.244 7.509-5.12 11.947-5.12zM602.273 612.867l-183.296 1.196 1.024 182.612 183.296-1.024-1.024-182.784zM901.624 611.159l-134.144 0.855 1.024 182.612 134.144-0.853-1.024-182.614zM657.229 841.219c0.172 0 0.172 0 0 0l57.856-0.341c5.292 0 10.24-2.048 13.824-5.803s5.632-8.704 5.632-13.994l-1.364-235.009c0-5.289-2.048-10.24-5.804-13.824-3.756-3.753-8.704-5.972-13.996-5.632l-57.684 0.343c-5.292 0-10.068 2.048-13.824 5.801-3.756 3.756-5.632 8.704-5.632 13.996l1.364 235.008c0.172 10.582 8.876 19.456 19.628 19.456zM308.728 843.267l57.856-0.341c5.289 0 10.24-2.048 13.824-5.803 3.753-3.754 5.632-8.704 5.632-13.994l-1.367-235.009c0-5.289-2.048-10.24-5.801-13.824-3.756-3.584-8.535-5.632-13.824-5.632h-0.172l-57.684 0.172c-5.292 0-10.24 2.048-13.824 5.804-3.756 3.753-5.632 8.704-5.632 13.993l1.364 235.009c0 10.922 8.704 19.626 19.628 19.626zM185.354 406.531h0.342c30.549 0 55.466 24.748 55.637 55.296 0.171 24.576-31.232 74.24-40.789 88.916-3.072 4.78-8.534 7.68-14.166 7.68-5.461 0.855-11.093-2.729-14.165-7.508-9.728-14.508-41.813-63.828-41.984-88.404-0.341-30.72 24.405-55.808 55.125-55.98zM185.866 509.102c12.288-21.335 21.163-40.791 21.163-47.104 0-11.776-9.216-21.335-21.675-21.335-11.776 0-21.333 9.728-21.333 21.676 0.171 6.144 9.387 25.6 21.845 46.764z" />
<glyph unicode="&#xe923;" glyph-name="right-arrow" d="M238.42 959.982c-15.135 0.333-29.997-4.054-42.52-12.559s-22.086-20.705-27.359-34.895c-5.272-14.19-5.992-29.669-2.060-44.287s12.322-27.643 24.002-37.273l445.66-381.791-445.66-381.658c-8.080-5.939-14.846-13.478-19.876-22.15s-8.214-18.298-9.354-28.262c-1.14-9.958-0.21-20.045 2.73-29.632s7.829-18.464 14.358-26.080c6.53-7.61 14.56-13.779 23.589-18.144 9.029-4.358 18.861-6.81 28.88-7.2 10.020-0.384 20.012 1.299 29.349 4.954 9.338 3.648 17.821 9.19 24.917 16.275l510.241 436.564c8.010 6.838 14.448 15.325 18.858 24.891 4.416 9.565 6.701 19.976 6.701 30.51s-2.285 20.945-6.701 30.51c-4.41 9.565-10.848 18.061-18.858 24.899l-510.241 436.982c-12.889 11.449-29.421 17.941-46.657 18.347z" />
<glyph unicode="&#xe924;" glyph-name="right-arrow-2" d="M960.852 427.962h-937.667c-11.154 0-20.165 9.011-20.165 20.165s9.011 20.165 20.165 20.165h888.957l-122.376 122.375c-7.877 7.877-7.877 20.669 0 28.546s20.668 7.877 28.545 0l156.848-156.844c5.796-5.8 7.5-14.434 4.346-21.996-3.15-7.496-10.523-12.411-18.653-12.411zM803.82 270.93c-5.169 0-10.334 1.954-14.242 5.923-7.877 7.877-7.877 20.668 0 28.545l157.032 157.037c7.881 7.877 20.673 7.877 28.549 0 7.877-7.881 7.877-20.673 0-28.549l-157.037-157.032c-3.969-3.969-9.138-5.923-14.303-5.923z" />
<glyph unicode="&#xe925;" glyph-name="right-arrow-3" d="M1012.27 476.314c-0.015 0.012-0.026 0.026-0.036 0.038l-209.009 208c-15.662 15.582-40.986 15.524-56.571-0.136-15.585-15.658-15.524-40.984 0.133-56.568l140.329-139.648h-847.117c-22.092 0-40-17.908-40-40s17.908-39.997 40-39.997h847.112l-140.324-139.648c-15.657-15.585-15.718-40.914-0.133-56.571 15.585-15.662 40.914-15.713 56.571-0.133l209.009 208c0.010 0.010 0.020 0.026 0.036 0.036 15.667 15.636 15.616 41.043 0 56.628z" />
<glyph unicode="&#xe926;" glyph-name="search" d="M952.724 34.671l-274.065 274.071c53.085 65.575 85.046 148.9 85.046 239.653 0 210.339-171.145 381.487-381.485 381.487s-381.485-171.145-381.485-381.485c0-210.34 171.147-381.485 381.487-381.485 90.753 0 174.078 31.961 239.653 85.052l274.071-274.071c7.831-7.831 18.107-11.764 28.389-11.764s20.558 3.933 28.389 11.764c15.703 15.703 15.703 41.080 0 56.778zM382.222 247.224c-166.088 0-301.173 135.085-301.173 301.173s135.085 301.173 301.173 301.173c166.088 0 301.171-135.085 301.171-301.173s-135.085-301.173-301.171-301.173z" />
<glyph unicode="&#xe927;" glyph-name="snowflake" d="M965.76 379.976c7.598-18.708-1.408-40.038-20.116-47.636l-101.617-41.329 94.049-56.509c17.536-10.015 23.634-32.353 13.619-49.894-10.015-17.536-32.353-23.639-49.889-13.619-0.476 0.266-0.942 0.548-1.398 0.84l-94.044 56.499 11.223-109.164c1.736-20.122-13.169-37.847-33.29-39.583-19.666-1.7-37.13 12.518-39.465 32.118l-16.819 163.712-179.717 107.96v-209.654l131.656-98.744c16.159-12.119 19.436-35.041 7.316-51.2s-35.041-19.43-51.2-7.316l-87.772 65.828v-109.711c0-20.198-16.374-36.572-36.571-36.572-20.199 0-36.573 16.374-36.573 36.572v109.711l-87.77-65.828c-16.159-12.114-39.082-8.842-51.2 7.316s-8.844 39.081 7.315 51.2l131.658 98.744v209.654l-179.708-107.986-16.823-163.712c-1.914-18.637-17.605-32.814-36.341-32.835-1.257-0.010-2.514 0.056-3.767 0.189-20.079 2.053-34.696 19.988-32.647 40.069 0.003 0.010 0.003 0.026 0.006 0.041l11.219 109.164-94.041-56.499c-17.075-10.793-39.664-5.693-50.45 11.382-10.789 17.075-5.691 39.665 11.385 50.452 0.46 0.287 0.925 0.568 1.398 0.84l94.046 56.509-101.616 41.324c-18.588 7.905-27.251 29.379-19.351 47.964 7.725 18.171 28.476 26.931 46.883 19.789l152.452-61.993 182.93 109.933-182.946 109.922-152.452-62.013c-18.83-7.305-40.017 2.036-47.322 20.869-7.142 18.407 1.619 39.161 19.79 46.883l101.616 41.325-94.049 56.53c-17.541 10.016-23.639 32.354-13.623 49.892 10.016 17.541 32.354 23.639 49.892 13.623 0.473-0.269 0.938-0.55 1.398-0.84l94.041-56.503-11.22 109.168c-2.060 20.092 12.557 38.053 32.65 40.113s38.053-12.557 40.113-32.649l16.823-163.712 179.711-107.977v209.654l-131.658 98.743c-16.164 12.113-19.449 35.034-7.336 51.197s35.034 19.449 51.197 7.336c0.008-0.006 0.016-0.013 0.027-0.019l87.77-65.827v109.71c0 20.199 16.374 36.573 36.573 36.573 20.197 0 36.571-16.374 36.571-36.573v-109.715l87.772 65.828c16.159 12.118 39.081 8.843 51.2-7.315s8.842-39.082-7.316-51.201l-131.656-98.737v-209.657l179.707 107.987 16.824 163.712c2.381 20.058 20.577 34.382 40.632 32.001 19.599-2.329 33.818-19.798 32.118-39.464l-11.218-109.166 94.039 56.503c17.075 10.786 39.665 5.691 50.452-11.385 10.783-17.075 5.688-39.664-11.387-50.45-0.461-0.29-0.927-0.571-1.398-0.84l-94.044-56.511 101.617-41.326c18.586-7.902 27.249-29.374 19.348-47.963-7.726-18.17-28.477-26.929-46.884-19.789l-152.453 61.994-182.932-109.933 182.948-109.923 152.453 61.993c18.678 7.619 39.992-1.347 47.611-20.024 0.005-0.026 0.020-0.046 0.031-0.072z" />
<glyph unicode="&#xe928;" glyph-name="solar-cell" d="M1024 813.867l-0.393 100.963c0 0.59 0 1.181-0.198 1.771v0.394c-0.196 0.394-0.196 0.787-0.393 1.181s-0.198 0.59-0.198 0.787-0.196 0.591-0.393 0.984l-0.394 0.591c0 0.197 0 0.197-0.196 0.197l-0.591 0.984h-0.198l-1.179 1.378h-0.394l-0.985 0.787-0.591 0.394-0.983 0.591h-0.591l-1.575 0.59h-537.289c-4.526 0-8.463-2.558-10.627-6.495l-418.024-819.712c0-0.196 0-0.196-0.197-0.393-0.197-0.394-0.197-0.787-0.394-1.181v-0.394c-0.197-0.591-0.394-0.983-0.394-1.574v-1.968c0.197-0.394 0.197-0.788 0.197-1.181v-0.591c0-0.394 0.197-0.591 0.197-0.985 0.197-0.196 0.197-0.394 0.197-0.591l0.591-0.983c0-0.198 0.197-0.198 0.197-0.394s0.197-0.196 0.197-0.394l0.394-0.591c0.197-0.196 0.197-0.393 0.394-0.393l1.181-1.379 49.006-47.234c2.362-1.968 5.314-3.149 8.266-3.149h510.918c4.526 0 8.462 2.362 10.627 6.298l187.165 365.672v-9.643c-0.196-22.24 11.218-43.102 30.112-54.91v-324.736h-701.823c-25.585 0-46.447-20.862-46.447-46.447v-17.319c0-6.496 5.314-11.808 11.809-11.808h800.228c6.494 0 11.808 5.313 11.808 11.808v51.367c0 0.196 0 0.196 0.196 0.196v340.087c15.746 12.399 24.798 31.293 24.798 51.367v264.905l74.788 145.639c0.788 1.771 1.181 3.543 1.181 5.511zM351.305 106.337l105.097 206.256h112.575l-105.097-206.256h-112.575zM213.932 106.337l105.097 206.256h110.804l-105.097-206.256h-110.804zM280.257 501.531h108.442l-84.234-165.321h-108.442l84.234 165.321zM388.502 714.085h108.442l-96.239-188.937h-108.442l96.239 188.937zM730.557 903.022l-84.234-165.321h-110.804l84.234 165.321h110.804zM869.702 903.022l-84.234-165.321h-112.575l84.234 165.321h112.575zM691.785 501.531h96.241l-84.234-165.321h-96.241l84.234 165.321zM580.982 336.21h-112.575l84.234 165.321h112.575l-84.234-165.321zM800.031 525.148h-96.239l96.239 188.937h96.241l-96.241-188.937zM677.222 525.148h-112.575l96.239 188.937h112.575l-96.239-188.937zM634.317 714.085l-96.239-188.937h-110.804l96.239 188.937h110.804zM415.268 501.531h110.804l-84.234-165.321h-110.804l84.234 165.321zM595.546 312.593h96.239l-104.899-206.256h-96.437l105.097 206.256zM908.472 737.702h-96.435l84.234 165.321h96.239l-84.038-165.321zM484.743 903.022h108.442l-84.234-165.321h-108.443l84.236 165.321zM184.018 312.593h108.442l-105.097-206.256h-108.442l105.097 206.256zM871.079 333.455h17.319l2.164 0.394h1.772l3.937 0.591 1.181 0.393 2.164 0.394v-317.061h-28.537v315.29zM122.81-33.792v5.511c0 12.597 10.234 22.83 22.83 22.83h753.781v-28.341h-776.611zM924.414 397.812c0-14.367-7.282-27.554-19.483-35.229-6.692-4.33-14.368-6.494-22.24-6.494h-2.362c-5.511 0.196-10.825 1.574-15.746 4.132-14.563 6.692-23.813 21.453-23.617 37.395v56.090l19.681 38.378 63.766 124.582v-218.853zM925.792 670.983l-65.93-128.91-247.586-482.97h-498.716l-24.601 23.617h505.013c4.526 0 8.463 2.362 10.627 6.298l395.588 777.004v-49.399l-74.395-145.64zM178.507 661.736c57.469 0 103.916 46.447 103.916 103.916s-46.447 103.915-103.916 103.915c-57.468 0-103.915-46.447-103.915-103.915 0.197-57.272 46.644-103.719 103.915-103.916zM178.507 845.949c44.283 0 80.299-36.016 80.299-80.298 0-44.283-36.016-80.299-80.299-80.299s-80.298 36.016-80.298 80.299c0 44.282 36.016 80.298 80.298 80.298zM312.929 786.708h43.889v-23.617h-43.889v23.617zM0 786.708h43.888v-23.617h-43.888v23.617zM165.367 953.129l23.618 0.165 0.307-43.888-23.618-0.165-0.307 43.889zM167.537 640.196l23.618 0.166 0.307-43.889-23.618-0.166-0.307 43.889zM265.167 878.167l31.029 31.029 16.698-16.697-31.029-31.029-16.698 16.697zM43.871 657.167l31.029 31.029 16.697-16.698-31.029-31.029-16.697 16.698zM43.175 891.471l16.579 16.815 31.249-30.81-16.579-16.815-31.249 30.81zM265.924 671.787l16.58 16.816 31.249-30.809-16.58-16.816-31.249 30.809z" />
<glyph unicode="&#xe929;" glyph-name="solar-panel" d="M511.998 879.36c-41.667 0-75.563-33.896-75.563-75.562s33.896-75.56 75.563-75.56c41.665 0 75.561 33.897 75.561 75.56 0.002 41.666-33.896 75.562-75.561 75.562zM511.998 758.395c-25.037 0-45.406 20.368-45.406 45.404s20.367 45.406 45.406 45.406c25.037 0 45.406-20.368 45.406-45.406s-20.369-45.404-45.406-45.404zM511.998 960c-8.329 0-15.077-6.752-15.077-15.078v-20.16c0-8.328 6.75-15.078 15.077-15.078s15.077 6.752 15.077 15.078v20.16c0.002 8.326-6.748 15.078-15.077 15.078zM437.125 899.996l-14.256 14.254c-5.886 5.888-15.434 5.886-21.324 0-5.888-5.888-5.888-15.436 0.002-21.326l14.254-14.256c2.945-2.944 6.806-4.416 10.662-4.416 3.858 0 7.719 1.472 10.664 4.418 5.888 5.89 5.888 15.438-0.002 21.326zM391.039 818.88h-20.161c-8.331 0-15.079-6.752-15.079-15.078 0-8.328 6.75-15.078 15.079-15.078h20.161c8.329 0 15.077 6.752 15.077 15.078s-6.75 15.078-15.077 15.078zM437.127 728.928c-5.89 5.888-15.436 5.888-21.328 0l-14.254-14.254c-5.888-5.888-5.888-15.436 0-21.324 2.947-2.943 6.808-4.418 10.664-4.418 3.858 0 7.719 1.473 10.664 4.418l14.254 14.254c5.888 5.888 5.888 15.436 0 21.324zM511.998 697.915c-8.329 0-15.077-6.752-15.077-15.079v-20.158c0-8.329 6.75-15.079 15.077-15.079s15.077 6.752 15.077 15.079v20.158c0.002 8.327-6.748 15.079-15.077 15.079zM622.453 714.668l-14.254 14.254c-5.888 5.888-15.436 5.89-21.326 0.002s-5.89-15.436-0.002-21.326l14.254-14.254c2.945-2.943 6.803-4.415 10.664-4.415 3.858 0 7.719 1.473 10.662 4.415 5.89 5.888 5.89 15.436 0.002 21.324zM653.124 818.875h-20.161c-8.329 0-15.077-6.752-15.077-15.078s6.75-15.078 15.077-15.078h20.161c8.329 0 15.077 6.752 15.077 15.078s-6.748 15.078-15.077 15.078zM622.449 914.25c-5.886 5.888-15.434 5.886-21.324 0l-14.254-14.254c-5.888-5.888-5.888-15.436 0.002-21.326 2.943-2.946 6.801-4.418 10.66-4.418s7.719 1.472 10.664 4.418l14.254 14.254c5.888 5.888 5.888 15.436-0.002 21.326zM930.251 187.634c-0.012 0.264-0.014 0.526-0.041 0.791-0.051 0.528-0.131 1.051-0.24 1.563-0.002 0.012-0.002 0.023-0.006 0.035l-26.853 127.556c-0.010 0.047-0.020 0.090-0.029 0.137l-26.851 127.547c-0.010 0.047-0.020 0.090-0.029 0.137l-26.878 127.674c-1.468 6.978-7.625 11.973-14.756 11.973h-645.141c-7.132 0-13.286-4.995-14.756-11.973l-26.872-127.66c-0.012-0.055-0.024-0.106-0.034-0.162l-26.85-127.549c-0.008-0.037-0.016-0.074-0.022-0.111l-26.852-127.558c-0.112-0.539-0.198-1.087-0.252-1.645-0.012-0.127-0.010-0.26-0.020-0.387-0.026-0.358-0.054-0.717-0.054-1.083v-60.486c0-8.327 6.75-15.077 15.078-15.077h357.881v-84.713h-115.964c-8.329 0-15.077-6.752-15.077-15.077v-45.408h-146.203c-8.33 0-15.078-6.752-15.078-15.077 0-8.327 6.75-15.079 15.078-15.079h645.114c8.331 0 15.077 6.752 15.077 15.079 0 8.325-6.748 15.077-15.077 15.077h-146.18v45.408c0 8.327-6.75 15.077-15.077 15.077h-115.966v84.713h357.884c8.329 0 15.077 6.752 15.077 15.077v60.215c0.002 0.020 0.002 0.045 0.002 0.070v0.195c0.002 0.246-0.020 0.481-0.033 0.721zM896.627 201.996h-236.163l-6.846 97.526h222.476l20.533-97.526zM849.213 427.205l20.535-97.526h-218.247l-6.846 97.526h204.558zM822.333 554.887l20.535-97.526h-200.329l-6.846 97.526h186.64zM418.531 554.887h186.931l6.846-97.526h-200.62l6.842 97.526zM409.573 427.205h204.851l6.846-97.526h-218.54l6.842 97.526zM400.615 299.52h222.771l6.844-97.524h-236.458l6.842 97.524zM201.663 554.887h186.639l-6.844-97.526h-200.327l20.532 97.526zM174.785 427.205h204.558l-6.844-97.526h-218.245l20.532 97.526zM658.207-3.518v-30.329h-292.415v30.329h292.415zM496.835 26.638v84.713h30.331v-84.713h-30.331zM542.419 141.509c-0.057 0-0.117 0.008-0.174 0.008h-60.488c-0.059 0-0.117-0.008-0.174-0.008h-357.712v30.329h71.83c8.33 0 15.079 6.752 15.079 15.077 0 8.329-6.751 15.079-15.079 15.079h-68.326l20.53 97.526h222.478l-6.844-97.524h-102.629c-8.329 0-15.079-6.752-15.079-15.079s6.75-15.077 15.077-15.077h116.677c0.010 0 0.018 0 0.029 0 0.006 0 0.014 0 0.020 0h268.734c0.006 0 0.014 0 0.020 0 0.010 0 0.018 0 0.027 0h253.71v-30.329l-357.706-0.002z" />
<glyph unicode="&#xe92a;" glyph-name="speech-bubble" d="M504 8.004c-6.618 0-13.244 1.638-19.251 4.937-12.796 7.027-20.749 20.467-20.749 35.063v79.996c0 22.054-17.946 40-40 40h-64c-198.504 0-360 161.498-360 360 0 198.504 161.496 360 360 360h304c198.502 0 360-161.496 360-360 0-1.654-0.009-3.3-0.026-4.942-0.943-96.967-30.404-169.637-95.509-235.638-59.575-60.395-146.628-114.086-267.119-188.399-40.576-25.028-86.562-53.393-135.876-84.766-6.532-4.156-13.995-6.251-21.47-6.251zM360 808c-154.392 0-280-125.608-280-280 0-154.394 125.608-280 280-280h64c66.167 0 120-53.833 120-120v-7.548c26.671 16.636 51.913 32.201 75.349 46.656 115.729 71.381 199.347 122.957 252.164 176.491 50.722 51.418 71.718 103.637 72.465 180.235 0.013 1.382 0.021 2.772 0.021 4.166 0 154.392-125.606 280-280 280h-304zM664 568h-304c-22.092 0-40 17.908-40 40s17.908 40 40 40h304c22.093 0 40-17.908 40-40s-17.907-40-40-40zM664 408h-304c-22.092 0-40 17.907-40 40s17.908 40 40 40h304c22.093 0 40-17.907 40-40s-17.907-40-40-40z" />
<glyph unicode="&#xe92b;" glyph-name="star" d="M1004.706 580.208c-7.526 22.385-26.897 38.705-50.227 42.272l-271.503 41.488-121.952 259.792c-10.4 22.144-32.624 36.24-57.040 36.24-24.432 0-46.64-14.096-57.039-36.24l-121.968-259.808-271.504-41.488c-23.328-3.568-42.704-19.872-50.208-42.272s-1.84-47.072 14.656-64l198.272-203.313-46.96-287.63c-3.872-23.808 6.224-47.744 25.92-61.662 19.68-13.926 45.664-15.334 66.832-3.652l242.016 133.837 242.016-133.837c9.552-5.282 20.064-7.868 30.528-7.868 12.736 0 25.472 3.866 36.303 11.52 19.697 13.901 29.776 37.837 25.905 61.662l-46.961 287.63 198.289 203.313c16.461 16.928 22.127 41.6 14.626 64.015z" />
<glyph unicode="&#xe92c;" glyph-name="sun" d="M512 704.475c-141.423 0-256.475-115.076-256.475-256.501 0-141.42 115.053-256.497 256.475-256.497 141.404 0 256.476 115.052 256.476 256.497 0 141.448-115.072 256.501-256.476 256.501zM511.993 779.87c-27.64 0-50.043 22.403-50.043 50.021v80.065c0 27.641 22.403 50.044 50.043 50.044 27.639 0 50.044-22.403 50.044-50.044v-80.065c0-27.618-22.426-50.021-50.044-50.021zM511.993 116.152c-27.64 0-50.043-22.405-50.043-50.048v-80.041c0-27.663 22.403-50.063 50.043-50.063 27.639 0 50.044 22.4 50.044 50.063v80.041c0 27.643-22.426 50.048-50.044 50.048zM746.644 682.657c-19.528 19.546-19.528 51.223 0 70.769l56.617 56.619c19.523 19.524 51.22 19.524 70.769 0 19.548-19.546 19.548-51.245 0-70.768l-56.617-56.62c-19.528-19.546-51.2-19.546-70.769 0zM277.339 213.309c-19.546 19.569-51.223 19.569-70.769 0l-56.619-56.596c-19.523-19.523-19.546-51.246 0-70.769s51.245-19.523 70.768 0l56.62 56.643c19.546 19.523 19.546 51.226 0 70.723zM843.848 447.995c0 27.64 22.405 50.042 50.048 50.042h80.061c27.643 0 50.043-22.403 50.043-50.042 0-27.643-22.4-50.022-50.043-50.022h-80.061c-27.643 0-50.048 22.38-50.048 50.022zM180.13 447.995c0 27.64-22.403 50.042-50.044 50.042h-80.042c-27.641 0-50.044-22.403-50.044-50.042 0-27.643 22.403-50.022 50.044-50.022h80.065c27.618 0 50.021 22.38 50.021 50.022zM746.634 213.32c19.548 19.523 51.246 19.523 70.769 0l56.617-56.617c19.548-19.502 19.548-51.226 0-70.748-19.543-19.523-51.22-19.523-70.769 0l-56.617 56.622c-19.548 19.543-19.548 51.22 0 70.743zM277.347 682.663c19.546 19.546 19.546 51.223 0 70.769l-56.62 56.596c-19.546 19.546-51.223 19.546-70.769 0-19.546-19.523-19.546-51.223 0-70.746l56.62-56.62c19.546-19.568 51.223-19.568 70.769 0z" />
<glyph unicode="&#xe92d;" glyph-name="support" d="M510.218 829.88c11.123 0 20.14 9.018 20.14 20.142v89.836c0 11.124-9.016 20.142-20.14 20.142-11.126 0-20.142-9.018-20.142-20.142v-89.836c0-11.124 9.019-20.142 20.142-20.142zM1002.56 268.029l-35.581 35.484c-12.659 12.641-29.53 19.604-47.506 19.604-11.494 0-22.528-2.86-32.305-8.218l-67.052 66.972 3.264 3.261c27.203 27.256 27.192 71.547 0 98.711-9.718 9.736-21.844 16.228-35.062 18.959 1.818 6.282 2.778 12.861 2.778 19.597 0 18.708-7.268 36.252-20.424 49.354-9.72 9.738-21.844 16.228-35.064 18.962 1.82 6.282 2.78 12.859 2.78 19.594 0 18.714-7.268 36.255-20.447 49.377-9.953 9.94-22.188 16.23-35.031 18.911 6.871 23.693 0.998 50.351-17.641 69.023-15.516 15.45-36.57 22.090-56.86 19.938l-132.869 25.15c-20.265 3.844-45.571 6.386-61.545-8.184-1.009-0.92-2.035-1.978-3.049-3.156-24.768 9.028-53.655 3.652-73.49-16.16-13.158-13.142-20.406-30.678-20.406-49.378 0-6.736 0.955-13.315 2.772-19.597-13.204-2.732-25.313-9.216-35-18.918-13.184-13.13-20.454-30.646-20.467-49.324-0.005-6.753 0.952-13.353 2.78-19.653-13.211-2.724-25.328-9.196-35.045-18.9-13.184-13.169-20.444-30.715-20.444-49.405 0-14.316 4.274-27.955 12.194-39.475-10-3.389-19.16-9.032-26.83-16.694-27.22-27.185-27.23-71.478 0.018-98.772l3.254-3.241-67.060-66.939c-24.922 11.735-55.628 7.34-76.194-13.202l-35.604-35.502c-12.664-12.649-19.636-29.522-19.638-47.506 0-17.989 6.974-34.862 19.638-47.514l44.434-44.38c7.87-7.862 20.624-7.854 28.484 0.018 7.862 7.869 7.854 20.623-0.016 28.483l-44.434 44.38c-5.044 5.038-7.822 11.791-7.822 19.011 0 7.217 2.778 13.967 7.81 18.993l35.606 35.507c8.896 8.886 22.512 10.209 32.852 4.027 0.728-1.093 1.57-2.132 2.534-3.1 1.726-1.728 3.696-3.054 5.788-4.024l204.185-203.886c0.97-2.115 2.304-4.104 4.040-5.844 1.692-1.695 3.622-3.003 5.67-3.968 4.319-4.882 6.705-11.118 6.705-17.769 0-7.222-2.778-13.97-7.821-19.008l-35.571-35.53c-10.509-10.463-27.607-10.46-38.085-0.031l-44.433 44.439c-7.866 7.864-20.618 7.864-28.484 0-7.866-7.867-7.866-20.618 0-28.485l44.466-44.47c13.088-13.033 30.276-19.548 47.472-19.548 17.201 0 34.409 6.523 47.514 19.571l35.592 35.548c12.664 12.652 19.638 29.522 19.638 47.514 0 12.836-3.571 25.098-10.209 35.668l75.474 75.382c0.079 0.082 0.159 0.164 0.241 0.246 8.643 8.932 32.709 7.26 55.982 5.645 16.535-1.149 34.972-2.427 52.984-0.351l82.647-82.552c-5.353-9.761-8.212-20.78-8.212-32.256 0-17.971 6.976-34.834 19.64-47.483l35.592-35.551c12.657-12.641 29.527-19.604 47.503-19.604 17.974 0 34.844 6.961 47.501 19.604l215.882 215.621c12.664 12.649 19.638 29.519 19.638 47.508 0 17.984-6.976 34.857-19.651 47.516zM468.040 753.13l87.373-16.538-52.296-52.279c-8.092 3.889-19.18 11.141-31.342 22.777-16.65 15.928-28.562 34.318-29.645 45.788-0.003 0.006-0.003 0.012-0.003 0.018 0 0.002-0.003 0.004-0.003 0.006-0.077 0.824-0.097 1.482-0.087 1.984 2.634 0.64 9.631 1.35 26.002-1.756zM365.924 736.709c10.204 10.194 26.056 11.37 37.586 3.562 6.533-27.396 29.903-52.227 40.417-62.285 7.793-7.457 32.794-29.811 58.030-35.955 3.415-4.895 5.274-10.726 5.274-16.883 0-7.931-3.052-15.345-8.609-20.897-5.542-5.55-12.969-8.607-20.913-8.607-7.946 0-15.37 3.057-20.938 8.635l-0.013 0.010-90.836 90.673c-5.537 5.53-8.589 12.944-8.589 20.872 0.003 7.93 3.054 15.344 8.591 20.876zM313.29 648.814c5.542 5.55 12.961 8.609 20.892 8.609 7.944 0 15.386-3.064 20.964-8.637l73.144-72.998c11.517-11.535 11.517-30.308 0.038-41.802-5.571-5.55-13.023-8.607-20.982-8.607-7.956 0-15.409 3.057-20.959 8.581v0.003l-55.491 55.478c-0.087 0.087-0.179 0.166-0.269 0.253l-17.359 17.354c-5.571 5.563-8.637 12.992-8.63 20.915 0.008 7.898 3.064 15.288 8.65 20.851zM260.559 560.94c5.545 5.537 12.979 8.586 20.936 8.586 7.89 0 15.26-3.005 20.782-8.448l55.66-55.634c5.55-5.527 8.609-12.933 8.609-20.854 0-7.918-3.059-15.324-8.63-20.874-5.545-5.535-12.972-8.586-20.913-8.586-7.954 0-15.404 3.059-20.956 8.586l-20.178 20.155c-0.005 0.005-0.010 0.010-0.013 0.013l-35.295 35.254c-5.564 5.558-8.628 12.982-8.628 20.902 0 7.918 3.064 15.342 8.626 20.9zM225.479 455.368c5.57 5.563 13.014 8.627 20.96 8.627 7.944 0 15.387-3.062 20.955-8.622l20.206-20.183c5.55-5.527 8.607-12.933 8.607-20.854s-3.057-15.324-8.65-20.895c-5.542-5.55-12.966-8.609-20.913-8.609s-15.371 3.057-20.953 8.648l-2.53 2.522c-0.034 0.033-0.060 0.069-0.092 0.102-0.038 0.036-0.078 0.067-0.116 0.102l-17.454 17.388c-11.518 11.54-11.528 30.28-0.020 41.774zM635.948 226.45c-7.862 7.872-20.616 7.88-28.485 0.018l-17.92-17.897c-17.027-17.029-47.88-14.884-77.719-12.815-32.402 2.253-65.907 4.577-87.59-17.682l-74.189-74.102-185.527 185.254 65.656 65.539c10.852-6.653 23.374-10.22 36.476-10.22 18.719 0 36.27 7.258 49.38 20.39 13.197 13.146 20.467 30.687 20.467 49.398 0 0.174-0.010 0.348-0.010 0.522 0.174-0.003 0.348-0.013 0.522-0.013 18.691 0 36.229 7.235 49.357 20.347 13.197 13.143 20.467 30.687 20.467 49.398 0 0.174-0.010 0.346-0.010 0.52 0.174 0 0.351-0.013 0.53-0.013 18.685 0 36.234 7.227 49.449 20.388 13.719 13.742 20.506 31.834 20.375 49.889 0.182-0.003 0.361-0.013 0.54-0.013 18.719 0.003 36.27 7.255 49.4 20.411 13.156 13.14 20.406 30.676 20.406 49.377 0 13.076-3.556 25.58-10.186 36.411l57.546 57.521c4.288 4.27 9.574 6.95 15.117 8.056 0.599 0.064 1.193 0.16 1.779 0.276 8.891 1.226 18.23-1.518 25.029-8.29 11.517-11.538 11.517-30.309 0.041-41.806l-17.526-17.454c-0.056-0.059-0.12-0.11-0.177-0.169l-20.186-20.15c-7.872-7.862-7.882-20.616-0.018-28.485 7.862-7.872 20.616-7.877 28.483-0.018l17.595 17.572c0.005 0.005 0.010 0.008 0.013 0.013l2.66 2.65c11.551 11.443 30.262 11.42 41.8-0.102 5.553-5.527 8.612-12.933 8.612-20.854 0-7.918-3.059-15.324-8.655-20.897l-17.626-17.661c-0.003-0.003-0.005-0.003-0.005-0.008l-20.186-20.101c-7.882-7.852-7.908-20.605-0.056-28.485 7.849-7.882 20.6-7.905 28.483-0.059l20.278 20.196c5.54 5.553 12.966 8.607 20.91 8.607 7.946 0 15.375-3.054 20.956-8.648 5.553-5.53 8.609-12.936 8.609-20.856 0-7.918-3.057-15.324-8.64-20.884l-35.141-35.154c-7.864-7.867-7.862-20.618 0.005-28.483 3.932-3.932 9.085-5.896 14.239-5.896 5.156 0 10.312 1.966 14.244 5.901l17.224 17.229c0.097 0.095 0.202 0.177 0.302 0.274 5.54 5.553 12.966 8.607 20.91 8.607 7.946 0 15.373-3.054 20.936-8.627 11.505-11.494 11.494-30.234 0-41.748l-17.51-17.492c-0.005-0.005-0.015-0.010-0.020-0.018-0.005-0.005-0.013-0.013-0.018-0.018l-27.791-27.758c-7.869-7.862-7.88-20.616-0.018-28.488 3.932-3.937 9.093-5.906 14.252-5.906 5.151 0 10.301 1.964 14.234 5.888l13.594 13.578 65.155-65.078-185.51-185.283-66.468 66.386c4.634 2.98 9.068 6.484 13.23 10.647l17.91 17.887c7.875 7.859 7.882 20.613 0.020 28.483zM974.103 201.505l-215.882-215.619c-5.048-5.043-11.809-7.823-19.034-7.823s-13.983 2.78-19.036 7.826l-35.594 35.548c-5.043 5.038-7.821 11.776-7.821 18.98 0 7.199 2.778 13.939 7.821 18.977l215.882 215.621c5.053 5.046 11.809 7.823 19.036 7.823 7.224 0 13.985-2.778 19.049-7.836l35.581-35.482c5.043-5.038 7.821-11.786 7.821-19.008s-2.78-13.97-7.823-19.008zM242.759 846.862c3.932-3.924 9.080-5.884 14.229-5.884 5.158 0 10.322 1.972 14.254 5.914 7.859 7.874 7.846 20.626-0.026 28.484l-73.397 73.25c-7.872 7.858-20.626 7.848-28.484-0.028-7.858-7.874-7.846-20.626 0.028-28.484l73.396-73.252zM763.441 840.979c5.151 0 10.304 1.964 14.234 5.89l73.341 73.252c7.869 7.86 7.877 20.614 0.015 28.484-7.859 7.87-20.611 7.878-28.483 0.016l-73.341-73.252c-7.869-7.86-7.877-20.614-0.015-28.484 3.935-3.938 9.091-5.906 14.249-5.906zM125.641 93.591c-7.798-7.931-7.69-20.685 0.244-28.485l0.058-0.054c3.914-3.85 8.996-5.765 14.076-5.765 5.214 0 10.428 2.017 14.378 6.036 7.798 7.931 7.66 20.713-0.272 28.511-7.93 7.798-20.682 7.688-28.484-0.243zM685.217 255.465c3.064 0 6.172 0.696 9.091 2.168 9.933 5.010 13.921 17.121 8.914 27.054-5.010 9.93-17.124 13.924-27.054 8.914l-0.113-0.056c-9.93-5.010-13.865-17.096-8.858-27.026 3.538-7.017 10.65-11.054 18.020-11.054z" />
<glyph unicode="&#xe92e;" glyph-name="telephone" d="M760.699 286.449c-32.675 32.261-73.468 32.261-105.936 0-24.767-24.559-49.535-49.119-73.885-74.092-6.661-6.868-12.281-8.325-20.397-3.746-16.027 8.74-33.094 15.817-48.495 25.39-71.806 45.163-131.955 103.233-185.234 168.586-26.433 32.468-49.952 67.224-66.393 106.353-3.332 7.909-2.708 13.112 3.746 19.563 24.767 23.935 48.909 48.495 73.261 73.054 33.925 34.133 33.925 74.095-0.21 108.435-19.356 19.564-38.712 38.712-58.068 58.276-19.98 19.98-39.753 40.169-59.94 59.941-32.676 31.844-73.47 31.844-105.938-0.208-24.976-24.559-48.911-49.743-74.302-73.886-23.519-22.27-35.382-49.535-37.88-81.379-3.954-51.824 8.741-100.733 26.641-148.397 36.631-98.652 92.409-186.275 160.051-266.614 91.368-108.642 200.428-194.6 328.012-256.622 57.444-27.891 116.969-49.328 181.696-52.865 44.542-2.498 83.254 8.74 114.264 43.499 21.23 23.726 45.163 45.373 67.641 68.058 33.301 33.716 33.509 74.509 0.417 107.811-39.543 39.753-79.296 79.298-119.051 118.841zM720.946 452.327l76.8 13.112c-12.071 70.556-45.37 134.454-95.946 185.237-53.489 53.489-121.132 87.206-195.641 97.612l-10.823-77.215c57.651-8.118 110.101-34.135 151.519-75.552 39.129-39.129 64.729-88.662 74.092-143.193zM841.037 786.168c-88.662 88.663-200.845 144.65-324.682 161.925l-10.821-77.216c106.977-14.985 203.967-63.479 280.557-139.863 72.637-72.637 120.299-164.423 137.573-265.366l76.8 13.112c-20.189 116.969-75.343 223.115-159.427 307.408z" />
<glyph unicode="&#xe92f;" glyph-name="telephone-2" d="M711.567 298.545c-8.451 8.483-18.491 15.209-29.545 19.801-11.054 4.586-22.911 6.952-34.875 6.952-11.97 0-23.827-2.366-34.881-6.952-11.054-4.592-21.094-11.318-29.545-19.801l-43.956-43.957c-49.493 31.415-95.348 68.22-136.724 109.746-41.525 41.374-78.332 87.229-109.743 136.723l43.958 43.958c8.479 8.45 15.206 18.489 19.797 29.544s6.953 22.907 6.953 34.877c0 11.97-2.363 23.823-6.953 34.877s-11.318 21.094-19.797 29.544l-85.793 85.491c-8.33 8.507-18.285 15.252-29.274 19.835s-22.787 6.91-34.693 6.843c-11.991 0.029-23.868-2.313-34.95-6.891s-21.149-11.303-29.622-19.787l-41.229-40.927c-19.652-21.129-34.318-46.394-42.922-73.936s-10.926-56.664-6.796-85.222c9.701-113.684 84.278-250.408 199.175-365.608s253.137-189.472 366.821-200.386c8.483-0.453 16.982-0.453 25.465 0 24.474-1.029 48.904 2.84 71.858 11.377 22.959 8.537 43.983 21.574 61.833 38.341l40.928 41.229c8.483 8.472 15.209 18.54 19.79 29.621 4.576 11.081 6.92 22.959 6.888 34.951 0.070 11.905-2.258 23.703-6.845 34.692-4.581 10.989-11.323 20.943-19.833 29.276l-85.488 85.79zM807.058 769.65c-42.13 42.291-92.214 75.825-147.37 98.666-55.15 22.842-114.284 34.54-173.977 34.42-8.041 0-15.751-3.194-21.437-8.879s-8.879-13.396-8.879-21.437c0-8.040 3.194-15.751 8.879-21.436s13.396-8.88 21.437-8.88c52.036 0.002 103.558-10.301 151.589-30.315 48.036-20.014 91.632-49.342 128.269-86.292 36.643-36.95 65.601-80.79 85.208-128.991 19.612-48.201 29.48-99.808 29.038-151.842 0-8.041 3.196-15.751 8.882-21.437 5.681-5.685 13.393-8.879 21.434-8.879s15.753 3.194 21.439 8.879c5.681 5.685 8.876 13.396 8.876 21.437 0.582 60.33-10.924 120.166-33.83 175.981-22.911 55.815-56.762 106.478-99.56 149.004zM634.562 596.235c17.203-17.101 30.817-37.47 40.028-59.909 9.216-22.439 13.851-46.495 13.63-70.752 0-8.040 3.196-15.751 8.882-21.436s13.393-8.88 21.434-8.88c8.041 0 15.753 3.194 21.439 8.88s8.876 13.396 8.876 21.436c0.404 32.103-5.573 63.967-17.58 93.742-12.013 29.775-29.809 56.87-52.375 79.713-22.56 22.843-49.432 40.979-79.053 53.356-29.626 12.377-61.411 18.749-93.518 18.747-8.040 0-15.751-3.194-21.436-8.879s-8.88-13.396-8.88-21.437c0-8.040 3.194-15.751 8.88-21.436s13.396-8.88 21.436-8.88c23.892-0.18 47.513-5.064 69.518-14.376 22-9.311 41.952-22.865 58.718-39.889z" />
<glyph unicode="&#xe930;" glyph-name="tools" d="M694.991 649.7c-11.039 0-19.999-8.937-19.999-19.991 0-11.049 8.96-20.001 19.999-20.001 11.064 0 20.001 8.952 20.001 20.001 0 11.054-8.937 19.991-20.001 19.991zM331.602 286.318c-11.062 0-20.001-8.96-20.001-19.999 0-11.064 8.94-20.001 20.001-20.001 11.039 0 19.999 8.937 19.999 20.001 0 11.039-8.96 19.999-19.999 19.999zM1000.43 836.959c-6.751 1.57-13.844-0.469-18.719-5.391l-82.913-83.57h-39.752l-43.758 45.336v40.305l81.728 82.945c4.836 4.906 6.804 11.961 5.202 18.672-1.592 6.703-6.531 12.109-13.061 14.313-20.531 6.922-42.017 10.43-63.867 10.43-65.142 0-124.321-30.375-162.368-83.336-35.61-49.578-46.587-110.336-30.858-168.484l-147.32-147.32-245.439 246v48.281c0 7.024-3.688 13.539-9.711 17.148l-141.414 84.86c-7.875 4.727-17.945 3.484-24.43-3.008l-56.563-56.555c-6.484-6.492-7.727-16.563-3.008-24.438l84.844-141.414c3.609-6.023 10.117-9.703 17.141-9.711l48.265-0.016 245.46-245.999-146.757-146.76c-58.149 15.721-118.938 4.728-168.539-30.904-52.93-38.024-83.281-97.188-83.281-162.33 0-21.844 3.508-43.336 10.43-63.859 2.211-6.569 7.672-11.53 14.422-13.094 6.758-1.569 13.844 0.468 18.727 5.391l82.906 83.564h39.969l45.539-45.54v-39.969l-83.562-82.906c-4.922-4.882-6.961-11.968-5.391-18.726 1.562-6.751 6.523-12.211 13.094-14.423 20.524-6.922 42.016-10.429 63.859-10.429 65.14 0 124.296 30.359 162.328 83.29 35.633 49.603 46.625 110.382 30.907 168.532l117.868 117.865 27-29.327-12.39-12.383c-7.813-7.813-7.813-20.477 0-28.288 7.811-7.805 20.467-7.805 28.288 0l11.218 11.218 253.33-275.172c0.187-0.202 0.381-0.399 0.579-0.594 46.874-46.876 122.819-46.892 169.718 0.008 46.766 46.789 46.766 122.921 0 169.71-0.202 0.205-0.415 0.399-0.625 0.594l-275.602 252.844 11.092 11.095c7.813 7.805 7.813 20.47 0 28.28-7.811 7.813-20.467 7.813-28.288 0l-12.306-12.311-29.381 26.967 118.436 118.438c16.837-4.5 34.212-6.781 51.814-6.781 110.28 0 199.992 89.72 199.992 199.993 0 21.852-3.51 43.336-10.429 63.867-2.212 6.57-7.672 11.531-14.423 13.094zM176.883 756.131c-3.75 3.758-8.836 5.672-14.148 5.672l-45.234 0.016-70.984 118.516 34.477 34.477 118.312-71v-45.234c0-5.297 2.102-10.375 5.844-14.125l251.312-251.884-28.288-28.28-251.29 251.844zM685.609 366.006l276.539-253.696c30.892-31.219 30.797-81.766-0.287-112.868-31.158-31.155-81.595-31.25-112.876-0.271l-254.157 276.070 90.78 90.765zM656.11 393.075l-88.399-88.381-27 29.327 86.016 86.024 29.384-26.97zM825.29 600.005c-17.492 0-34.696 2.806-51.118 8.335-7.196 2.414-15.148 0.556-20.524-4.81-100.265-100.268-316.314-316.306-395.868-395.868-5.373-5.376-7.242-13.327-4.813-20.531 16.627-49.367 8.673-102.024-21.827-144.484-30.415-42.337-77.743-66.627-129.836-66.627-5.852 0-11.672 0.32-17.437 0.937l63.523 63.032c3.781 3.75 5.914 8.86 5.914 14.195v56.579c0 5.304-2.109 10.391-5.859 14.141l-57.258 57.257c-3.75 3.75-8.836 5.86-14.141 5.86h-56.578c-5.336 0-10.445-2.132-14.203-5.914l-63.023-63.524c-0.625 5.765-0.937 11.584-0.937 17.436 0 52.101 24.281 99.423 66.625 129.836 42.453 30.5 95.117 38.461 144.492 21.829 7.195-2.429 15.149-0.563 20.522 4.813 1.103 1.093 395.587 395.587 395.868 395.868 5.376 5.373 7.235 13.32 4.813 20.522-16.632 49.367-8.696 102.008 21.78 144.438 30.438 42.375 77.773 66.672 129.876 66.672 6.031 0 12.022-0.336 17.961-0.992l-62.203-63.133c-3.689-3.742-5.752-8.781-5.752-14.031v-56.578c0-5.188 2.010-10.164 5.612-13.891l55.258-57.258c3.766-3.906 8.96-6.109 14.39-6.109h56.579c5.327 0 10.437 2.125 14.195 5.914l63.025 63.516c0.625-5.766 0.937-11.586 0.937-17.437 0-88.218-71.775-159.993-159.992-159.993zM624.289 587.29l-250.273-250.273c-7.805-7.803-7.805-20.467 0-28.28 7.813-7.813 20.477-7.813 28.288 0l250.276 250.273c7.811 7.805 7.811 20.47 0 28.28-7.813 7.813-20.477 7.813-28.291 0zM877.025 56c7.811-7.79 20.475-7.79 28.288 0.046 7.798 7.821 7.775 20.485-0.046 28.283l-180.275 179.694c-7.818 7.798-20.49 7.775-28.28-0.046-7.805-7.828-7.782-20.485 0.038-28.283l180.275-179.694z" />
</font>
</defs>
</svg>
